<?xml version="1.0" standalone="no"?>
<!DOCTYPE svg PUBLIC "-//W3C//DTD SVG 20010904//EN"
 "http://www.w3.org/TR/2001/REC-SVG-20010904/DTD/svg10.dtd">
<svg version="1.0" xmlns="http://www.w3.org/2000/svg"
 width="944.000000pt" height="944.000000pt" viewBox="0 0 944.000000 944.000000"
 preserveAspectRatio="xMidYMid meet">

<g transform="translate(0.000000,944.000000) scale(0.100000,-0.100000)"
fill="#000000" stroke="none">
<path d="M4595 7734 c-16 -2 -73 -9 -125 -14 -272 -31 -571 -106 -829 -209
-223 -89 -515 -258 -720 -416 -141 -108 -144 -125 -12 -60 142 70 207 97 375
157 331 116 638 174 986 185 820 25 1538 -245 2076 -781 211 -210 350 -396
477 -636 424 -801 409 -1755 -40 -2549 -172 -304 -473 -622 -783 -828 -356
-235 -666 -351 -1105 -413 -383 -53 -425 -69 -561 -204 -61 -62 -91 -101 -124
-167 -24 -47 -41 -92 -38 -101 6 -16 51 -23 298 -47 272 -28 535 -19 785 24
598 104 1189 407 1621 831 209 207 305 320 441 524 231 345 391 740 463 1140
68 384 67 759 -6 1143 -35 189 -84 350 -169 559 -247 602 -736 1149 -1322
1477 -438 246 -931 377 -1443 386 -118 2 -228 2 -245 -1z"/>
<path d="M3860 7024 c-384 -35 -687 -96 -955 -195 -499 -185 -740 -423 -963
-954 -144 -343 -209 -660 -219 -1065 -6 -273 5 -457 42 -653 164 -885 705
-1638 1520 -2117 50 -29 108 -65 129 -79 26 -17 41 -22 43 -14 9 27 111 153
182 226 185 190 405 321 666 396 190 55 264 63 695 71 342 7 406 11 480 28
232 55 465 185 685 382 130 116 271 288 252 306 -21 21 -178 -51 -347 -158
-490 -312 -582 -338 -1050 -300 -331 27 -435 17 -653 -62 -54 -20 -100 -36
-102 -36 -26 0 75 140 149 208 129 119 306 146 633 97 367 -56 409 -57 508
-11 47 21 56 29 53 48 -5 35 -72 66 -257 120 -453 132 -524 152 -631 175 -165
35 -248 39 -371 19 -173 -28 -457 -136 -640 -242 -86 -50 -193 -114 -253 -153
-28 -17 -55 -31 -60 -31 -13 0 -10 3330 2 3342 4 3 48 2 97 -4 93 -10 212 -8
563 13 539 31 950 -65 1317 -310 137 -91 347 -301 438 -436 128 -193 218 -414
263 -645 25 -128 25 -423 0 -560 -61 -341 -206 -623 -430 -837 -90 -88 -188
-163 -242 -189 -19 -9 -34 -19 -34 -23 0 -4 59 -22 132 -40 154 -38 202 -60
223 -102 l16 -30 102 54 c56 30 156 84 222 119 188 102 254 124 381 128 6 0
36 51 67 113 111 225 192 499 229 780 19 144 16 499 -6 637 -78 503 -295 929
-656 1290 -381 381 -848 600 -1445 676 -115 15 -668 27 -775 18z m-1160 -2271
c0 -735 -4 -1284 -9 -1287 -14 -9 -25 11 -81 144 -179 426 -250 801 -237 1254
14 481 111 889 271 1141 29 44 40 55 47 44 5 -8 9 -560 9 -1296z"/>
<path d="M5392 5450 c-103 -47 -154 -158 -128 -283 9 -48 76 -123 131 -148
136 -62 315 34 339 182 9 54 -11 131 -44 177 -60 83 -199 117 -298 72z"/>
<path d="M3858 4991 c-84 -17 -148 -103 -148 -200 0 -163 167 -252 309 -164
112 70 124 240 22 326 -25 21 -113 50 -139 46 -4 -1 -24 -5 -44 -8z"/>
<path d="M5595 4894 c-49 -25 -62 -42 -105 -133 -115 -238 -164 -315 -275
-427 -177 -179 -374 -271 -597 -281 -65 -3 -118 -9 -118 -14 0 -10 134 -53
228 -74 144 -31 354 -15 486 36 87 35 206 110 260 166 29 29 56 53 59 53 34 0
-70 -325 -150 -468 -19 -35 -32 -66 -29 -69 18 -18 208 131 283 223 164 199
231 402 221 668 -6 159 -28 228 -93 294 -38 38 -47 42 -91 42 -27 0 -62 -7
-79 -16z"/>
<path d="M3724 4506 c-40 -17 -82 -72 -99 -128 -28 -93 -38 -251 -25 -396 15
-174 47 -302 106 -420 66 -135 76 -129 91 68 15 187 41 318 82 425 17 44 35
85 39 91 5 8 32 6 97 -8 69 -15 115 -18 200 -14 169 7 258 43 397 158 47 39
94 95 86 103 -2 2 -39 -13 -83 -33 l-80 -37 -165 0 c-157 0 -169 1 -243 29
-47 17 -113 54 -169 93 -51 36 -103 69 -116 74 -33 13 -82 11 -118 -5z"/>
<path d="M4425 3755 c-55 -13 -139 -39 -186 -59 -101 -43 -214 -115 -214 -136
0 -17 -1 -17 145 16 181 42 297 50 430 30 237 -35 285 -39 342 -27 58 12 168
74 168 94 0 7 -55 23 -138 40 -75 15 -177 36 -227 47 -116 25 -196 24 -320 -5z"/>
</g>
</svg>
