<?xml version="1.0" standalone="no"?>
<!DOCTYPE svg PUBLIC "-//W3C//DTD SVG 20010904//EN"
 "http://www.w3.org/TR/2001/REC-SVG-20010904/DTD/svg10.dtd">
<svg version="1.0" xmlns="http://www.w3.org/2000/svg"
 width="3000.000000pt" height="2000.000000pt" viewBox="0 0 3000.000000 2000.000000"
 preserveAspectRatio="xMidYMid meet">

<g transform="translate(0.000000,2000.000000) scale(0.100000,-0.100000)"
fill="#000000" stroke="none">
<path d="M8112 17840 c-194 -51 -321 -186 -366 -387 -28 -124 -17 -241 29
-333 30 -59 68 -93 135 -123 80 -36 100 -41 100 -24 0 11 24 15 103 20 56 4
138 16 182 27 92 23 230 86 286 131 24 19 39 26 39 17 1 -24 38 31 59 88 15
39 21 78 21 137 -1 225 -155 416 -369 457 -77 14 -135 12 -219 -10z"/>
<path d="M19330 17315 c-7 -9 -11 -17 -9 -19 2 -2 168 -132 368 -290 286 -225
367 -284 377 -275 8 6 11 15 9 19 -5 7 -665 531 -716 567 -14 10 -19 10 -29
-2z"/>
<path d="M8728 17149 c-77 -7 -93 -13 -137 -44 -121 -87 -291 -142 -478 -154
-109 -7 -125 -11 -205 -49 -102 -47 -166 -103 -275 -240 -133 -166 -191 -210
-481 -368 -259 -141 -372 -245 -433 -401 -20 -53 -23 -81 -29 -303 -7 -267 -4
-248 -83 -431 -77 -176 -92 -265 -62 -365 20 -68 56 -113 145 -180 141 -107
241 -145 438 -170 214 -26 263 -57 404 -261 114 -165 184 -216 298 -217 213 0
360 217 321 475 -7 45 -28 132 -48 193 -37 117 -62 237 -63 298 0 33 4 39 40
59 22 13 47 33 55 46 14 20 13 23 -6 34 -17 9 -23 7 -35 -9 -33 -48 -123 -65
-191 -37 -20 9 -44 13 -54 10 -26 -8 -95 64 -128 134 -23 49 -26 69 -26 156 0
122 23 181 94 248 63 59 107 73 179 57 44 -10 65 -22 108 -63 l53 -52 31 85
c63 167 218 469 254 492 6 4 54 5 107 1 118 -7 175 9 254 74 64 51 86 55 171
25 148 -51 275 -33 391 56 36 27 37 27 133 -14 57 -25 77 -28 165 -28 l101 1
48 -60 c86 -108 143 -244 165 -394 40 -266 -54 -820 -185 -1088 -96 -197 -260
-334 -454 -379 -75 -18 -230 -21 -316 -5 -251 44 -512 199 -736 437 -65 68
-72 61 -37 -33 50 -134 212 -316 379 -427 100 -66 275 -155 379 -192 41 -15
75 -25 76 -24 1 2 12 22 24 46 12 23 24 42 27 42 2 0 21 -7 42 -16 20 -8 78
-26 127 -40 79 -21 107 -24 230 -21 120 3 152 8 225 32 47 15 110 40 140 55
85 43 208 139 272 212 l57 65 139 35 c77 20 165 49 196 64 150 73 201 206 147
383 -31 101 -81 171 -238 333 -205 211 -237 274 -268 518 -9 70 -27 156 -41
195 -14 39 -30 112 -35 163 -54 520 -427 913 -969 1022 -117 23 -286 31 -402
19z m-1140 -611 c-32 -60 -170 -196 -253 -249 -38 -25 -108 -65 -154 -90 -106
-56 -216 -156 -259 -237 -50 -94 -62 -158 -61 -322 1 -183 -11 -224 -121 -415
-112 -196 -143 -278 -144 -383 -1 -80 -1 -82 -15 -50 -19 46 -17 154 4 218 10
30 37 101 62 158 78 180 78 184 75 402 -2 220 6 278 51 364 68 128 160 204
412 341 206 112 285 165 359 241 34 34 62 62 64 63 2 0 -7 -18 -20 -41z m2558
-790 c26 -256 55 -314 258 -526 145 -152 174 -188 213 -267 55 -108 65 -202
32 -275 -45 -99 -129 -149 -329 -194 l-65 -15 39 35 c22 19 74 54 116 78 135
78 176 144 168 270 -8 123 -59 197 -257 371 -186 164 -229 237 -253 427 -9 73
-9 96 5 145 9 32 20 85 23 118 l7 59 14 -38 c7 -22 20 -106 29 -188z"/>
<path d="M21525 16999 c-84 -8 -143 -27 -250 -80 -126 -63 -228 -140 -273
-207 -22 -31 -74 -88 -115 -125 -93 -83 -137 -162 -140 -249 -2 -66 13 -89 79
-114 57 -22 125 -14 194 21 l52 27 93 -27 c157 -44 297 -49 387 -12 30 12 37
11 94 -19 96 -50 195 -53 295 -10 12 5 20 -1 29 -24 7 -17 29 -44 50 -60 45
-36 157 -90 186 -90 19 0 26 -21 73 -212 29 -117 74 -277 99 -355 l47 -143
-40 -16 c-49 -19 -125 -80 -125 -100 0 -29 31 -27 63 4 35 33 87 62 112 62 8
0 15 7 15 15 0 22 65 19 117 -6 94 -46 147 -151 147 -295 l-1 -92 -61 -74
c-73 -88 -123 -130 -194 -163 -88 -41 -156 -29 -215 38 -21 24 -38 35 -48 31
-26 -10 -17 -36 29 -79 113 -109 265 -71 433 109 l72 77 25 -43 c13 -24 32
-60 42 -80 10 -21 21 -38 24 -38 4 0 13 26 20 58 7 31 54 203 105 382 121 427
139 516 140 695 0 149 -10 210 -52 304 -13 30 -22 55 -21 56 11 8 452 -242
542 -307 40 -29 80 -36 92 -17 6 11 27 10 145 -7 44 -6 49 -4 85 29 38 35 39
36 39 109 0 102 -32 168 -129 264 -105 103 -248 170 -426 198 -19 4 -114 9
-210 13 l-175 6 -42 47 c-25 28 -72 63 -113 84 -67 35 -72 41 -102 104 -66
139 -197 231 -410 286 -140 36 -224 42 -337 21 -94 -18 -132 -17 -311 3 -36 4
-96 4 -135 1z"/>
<path d="M19090 16532 c0 -11 8 -23 18 -26 48 -15 840 -216 850 -216 7 0 12 8
12 18 0 15 -64 34 -417 125 -230 59 -428 110 -440 113 -18 5 -23 2 -23 -14z"/>
<path d="M12430 16061 c0 -20 5 -21 93 -22 50 0 110 -2 132 -4 22 -2 90 -6
150 -10 168 -9 491 -45 663 -73 46 -8 52 -7 52 9 0 10 -8 20 -17 23 -21 6
-197 33 -268 40 -174 20 -244 27 -308 31 -40 3 -92 8 -117 10 -25 3 -120 8
-212 11 -167 7 -168 7 -168 -15z"/>
<path d="M19090 15930 c0 -20 7 -20 425 -20 418 0 425 0 425 20 0 20 -7 20
-425 20 -418 0 -425 0 -425 -20z"/>
<path d="M20678 15899 c-21 -12 -23 -32 -5 -47 17 -14 280 -82 317 -82 15 0
35 9 45 20 16 18 17 21 1 44 -22 35 -45 45 -139 62 -95 16 -194 18 -219 3z"/>
<path d="M8738 15847 c-51 -19 -130 -79 -150 -115 -16 -26 -16 -31 -3 -42 13
-11 22 -5 58 32 48 52 112 88 155 88 16 0 50 -6 75 -14 40 -12 46 -12 51 1 10
25 7 29 -27 41 -55 20 -119 23 -159 9z"/>
<path d="M16265 15835 c-36 -35 -29 -89 14 -122 47 -36 121 7 121 70 0 70 -85
103 -135 52z"/>
<path d="M9640 15805 c-35 -16 -90 -62 -90 -76 0 -18 35 -18 54 -1 49 45 112
55 168 26 25 -13 32 -14 39 -2 13 20 11 26 -15 43 -35 23 -114 28 -156 10z"/>
<path d="M21657 15790 c-45 -8 -70 -30 -61 -53 6 -18 23 -22 159 -37 104 -12
136 -20 262 -61 51 -17 107 -29 125 -27 30 3 33 6 33 38 0 28 -6 38 -33 56
-98 67 -351 110 -485 84z"/>
<path d="M15300 15750 c-27 -27 -27 -90 0 -115 29 -26 85 -25 112 3 28 27 29
83 3 112 -25 27 -88 27 -115 0z"/>
<path d="M12728 15732 c-57 -2 -68 -6 -68 -20 0 -16 17 -18 213 -19 481 -3
931 -50 1381 -145 82 -17 100 -18 107 -7 5 8 9 17 9 20 0 14 -455 93 -710 124
-278 33 -734 56 -932 47z"/>
<path d="M16783 15684 c-44 -39 -63 -63 -63 -80 0 -31 5 -30 49 7 98 86 110
99 105 114 -10 25 -26 17 -91 -41z"/>
<path d="M14810 15705 c-6 -8 -9 -19 -5 -25 11 -18 167 -141 173 -136 16 16
-17 62 -82 115 -62 51 -76 58 -86 46z"/>
<path d="M15789 15648 c-16 -61 -16 -140 0 -171 28 -52 90 -58 159 -15 31 19
32 22 18 36 -15 15 -19 15 -45 -1 -34 -20 -72 -22 -89 -5 -15 15 -15 90 -1
142 8 31 8 41 -3 47 -22 15 -27 11 -39 -33z"/>
<path d="M8753 15530 c-12 -5 -29 -23 -38 -39 -27 -53 0 -105 63 -117 26 -5
36 -1 62 24 36 36 39 71 8 106 -26 29 -63 39 -95 26z"/>
<path d="M20743 15508 c-30 -34 -34 -55 -19 -92 37 -88 161 -59 158 37 -2 68
-94 104 -139 55z"/>
<path d="M9632 15467 c-32 -34 -30 -89 4 -116 55 -43 134 -8 134 59 0 69 -91
107 -138 57z"/>
<path d="M7820 15454 c-11 -12 -11 -17 1 -28 48 -44 269 -226 273 -226 3 0 10
9 16 19 9 17 -7 34 -129 135 -77 64 -142 116 -144 116 -3 0 -10 -7 -17 -16z"/>
<path d="M9408 15450 c-16 -10 -15 -13 2 -54 31 -68 52 -165 46 -201 -4 -18
-16 -45 -27 -59 -24 -31 -69 -34 -127 -11 -34 15 -38 15 -50 -2 -12 -16 -8
-20 35 -40 60 -28 108 -29 151 -3 48 29 65 79 59 165 -4 65 -50 215 -66 215
-3 0 -14 -5 -23 -10z"/>
<path d="M21213 15408 c-95 -157 -106 -267 -35 -333 35 -33 82 -40 148 -26 54
12 59 17 48 44 -4 12 -12 13 -37 6 -18 -5 -48 -9 -68 -9 -108 0 -118 128 -23
283 29 47 33 61 24 72 -19 22 -23 19 -57 -37z"/>
<path d="M21625 15395 c-52 -51 -16 -145 55 -145 22 0 41 10 62 30 25 26 29
36 24 63 -13 70 -94 100 -141 52z"/>
<path d="M8740 15226 c0 -2 13 -6 29 -8 17 -2 28 -1 25 4 -5 8 -54 12 -54 4z"/>
<path d="M8818 15223 c7 -3 16 -2 19 1 4 3 -2 6 -13 5 -11 0 -14 -3 -6 -6z"/>
<path d="M8690 15200 c0 -5 5 -10 10 -10 6 0 10 5 10 10 0 6 -4 10 -10 10 -5
0 -10 -4 -10 -10z"/>
<path d="M8758 15203 c7 -3 16 -2 19 1 4 3 -2 6 -13 5 -11 0 -14 -3 -6 -6z"/>
<path d="M8863 15203 c15 -2 25 -9 22 -14 -4 -5 -1 -17 5 -26 9 -16 10 -15 5
5 -4 15 -2 22 7 22 10 0 9 3 -2 10 -8 5 -26 9 -40 8 -24 -1 -24 -1 3 -5z"/>
<path d="M8640 15172 c-20 -21 -25 -37 -25 -81 -1 -29 1 -49 3 -42 2 6 7 9 11
6 5 -2 5 14 1 36 -6 30 -4 42 6 46 8 3 11 9 8 14 -3 5 1 12 10 15 15 6 31 34
18 33 -4 0 -18 -12 -32 -27z"/>
<path d="M8680 15165 c-7 -8 -8 -15 -2 -15 5 0 15 7 22 15 7 8 8 15 2 15 -5 0
-15 -7 -22 -15z"/>
<path d="M8922 15166 c7 -8 15 -12 17 -11 5 6 -10 25 -20 25 -5 0 -4 -6 3 -14z"/>
<path d="M9678 15173 c7 -3 16 -2 19 1 4 3 -2 6 -13 5 -11 0 -14 -3 -6 -6z"/>
<path d="M9574 15138 l-29 -33 33 29 c30 28 37 36 29 36 -2 0 -16 -15 -33 -32z"/>
<path d="M9730 15159 c-25 -5 -56 -7 -70 -4 -21 4 -22 3 -8 -5 19 -12 115 -3
124 11 3 5 4 9 2 8 -2 -1 -23 -5 -48 -10z"/>
<path d="M9775 15137 l-20 -20 25 13 c32 16 33 17 23 23 -4 2 -17 -5 -28 -16z"/>
<path d="M8951 15142 c-1 -9 -9 -11 -23 -7 -20 5 -21 4 -5 -5 9 -6 21 -9 26
-6 5 3 12 -6 15 -20 4 -15 9 -24 12 -21 3 2 -2 20 -10 38 -8 19 -15 28 -15 21z"/>
<path d="M8690 15130 c0 -5 7 -7 15 -4 8 4 15 8 15 10 0 2 -7 4 -15 4 -8 0
-15 -4 -15 -10z"/>
<path d="M9590 15119 c0 -5 5 -7 10 -4 6 3 10 8 10 11 0 2 -4 4 -10 4 -5 0
-10 -5 -10 -11z"/>
<path d="M9841 15100 c0 -8 4 -22 9 -30 12 -18 12 -2 0 25 -6 13 -9 15 -9 5z"/>
<path d="M14745 15074 c-359 -68 -703 -149 -1015 -240 -251 -73 -234 -70 -269
-44 -46 32 -169 86 -230 100 -96 22 -199 2 -258 -52 -17 -16 -39 -21 -95 -23
-109 -5 -217 -53 -248 -109 -10 -20 -18 -23 -45 -19 -37 6 -75 -11 -125 -58
-25 -23 -43 -32 -62 -30 -44 4 -149 -27 -200 -61 -95 -60 -182 -182 -237 -329
-12 -31 -29 -63 -39 -72 -9 -8 -82 -50 -162 -92 -80 -42 -182 -98 -227 -124
l-82 -46 -1 -51 0 -51 -122 -73 c-68 -41 -124 -77 -126 -82 -2 -4 -8 -8 -14
-8 -5 0 -169 -96 -364 -212 -234 -141 -354 -218 -354 -229 0 -9 18 -90 39
-180 95 -396 130 -604 139 -835 l7 -160 230 68 c127 38 433 125 680 194 473
132 900 253 920 261 8 3 20 -20 33 -64 27 -86 99 -235 154 -315 53 -80 185
-217 248 -260 27 -18 50 -36 50 -39 0 -3 -18 -13 -40 -23 -84 -37 -141 -141
-119 -219 14 -53 25 -46 32 23 3 36 14 74 27 95 23 37 93 92 98 77 1 -5 -16
-61 -38 -126 -47 -132 -47 -145 3 -239 37 -71 140 -170 236 -227 220 -131 597
-233 996 -270 66 -6 136 -13 156 -15 36 -5 36 -5 51 48 8 28 37 121 64 205 44
136 51 152 69 148 11 -3 60 -12 109 -21 298 -51 543 43 652 250 114 215 153
629 89 935 -15 72 -32 90 -85 90 -47 0 -75 21 -105 81 -21 41 -27 73 -35 182
-6 72 -13 146 -16 164 -4 21 3 59 20 110 57 171 72 335 40 444 -30 101 -93
206 -178 296 -97 103 -170 156 -310 226 -58 29 -103 57 -99 62 4 4 3 5 -4 1
-6 -3 -46 5 -89 19 -42 14 -88 25 -102 25 -13 0 -31 8 -39 18 -8 9 -12 11 -8
4 5 -10 -15 -12 -94 -10 l-101 3 -15 44 c-8 25 -15 57 -15 71 0 28 70 135 131
202 19 20 51 57 72 83 21 25 43 42 49 39 6 -4 8 -2 4 4 -7 12 130 139 146 134
5 -1 7 2 3 7 -6 10 34 37 48 33 5 -1 6 2 3 7 -6 9 109 89 204 143 62 35 225
94 283 103 38 5 47 10 43 22 -3 8 -6 17 -6 19 0 15 -199 -2 -355 -32z m-985
-918 c0 -10 -20 -16 -67 -20 -103 -11 -207 -42 -321 -96 -265 -127 -532 -348
-687 -572 -56 -81 -77 -100 -89 -80 -6 11 107 168 183 253 186 207 494 416
723 489 121 39 258 52 258 26z m1540 -2139 c0 -136 -54 -225 -129 -213 -21 3
-45 16 -58 30 -27 32 -60 120 -69 185 l-6 50 43 4 c24 2 83 4 132 5 l87 2 0
-63z m-1234 -226 c99 -57 167 -195 168 -341 1 -143 -51 -227 -149 -238 -71 -8
-109 5 -163 53 -82 74 -131 195 -132 328 0 59 2 67 19 67 16 0 19 -11 24 -82
7 -98 34 -176 85 -243 48 -63 94 -88 150 -82 94 10 147 115 123 243 -34 176
-137 294 -248 282 -22 -2 -29 2 -31 20 -3 20 0 22 50 22 40 0 65 -7 104 -29z"/>
<path d="M16595 15031 c-75 -142 -184 -245 -341 -322 -142 -70 -255 -93 -424
-86 -69 3 -151 12 -182 21 -181 50 -341 141 -418 238 -25 31 -46 55 -48 53 -8
-7 100 -203 135 -246 77 -94 239 -190 388 -230 108 -29 290 -31 390 -5 242 63
423 237 500 479 12 37 24 65 27 62 3 -3 3 6 1 20 -6 31 0 31 100 6 91 -24 177
-59 177 -74 0 -6 3 -8 6 -4 23 23 324 -199 307 -226 -3 -6 -1 -7 4 -4 15 9 56
-29 47 -44 -4 -7 -3 -9 4 -5 11 7 77 -67 77 -88 1 -6 6 -10 12 -9 11 3 104
-119 151 -198 12 -20 22 -50 22 -67 0 -42 -29 -114 -43 -105 -6 3 -7 1 -3 -6
13 -20 -86 -147 -105 -135 -5 3 -9 1 -9 -5 0 -13 -75 -52 -84 -44 -3 4 -6 2
-6 -4 0 -6 -19 -23 -42 -39 -24 -15 -52 -38 -63 -51 -31 -36 -128 -61 -195
-50 -84 13 -392 -10 -503 -38 -15 -4 -27 -4 -27 -1 0 4 24 39 54 79 80 106
158 234 233 381 36 72 69 133 72 136 8 7 8 90 0 90 -3 0 -38 -64 -77 -142 -39
-79 -91 -178 -117 -221 l-46 -77 -62 65 c-34 36 -68 65 -75 65 -20 0 -14 -17
13 -34 13 -9 43 -41 66 -71 l41 -54 -60 -83 c-33 -46 -67 -92 -75 -102 -13
-18 -16 -16 -51 37 -48 72 -112 144 -121 135 -4 -3 15 -35 42 -70 79 -103 97
-136 83 -153 -20 -25 -231 -131 -307 -155 -56 -17 -81 -31 -107 -61 l-35 -38
-63 10 c-111 18 -241 81 -335 164 l-45 40 60 118 c33 64 56 120 51 123 -11 7
-60 -71 -95 -152 -16 -35 -33 -63 -39 -61 -29 10 -235 286 -235 316 0 6 21 43
47 81 25 39 43 73 40 76 -7 8 -47 -37 -79 -88 -13 -21 -26 -38 -29 -38 -13 0
-149 289 -200 427 -30 79 -57 143 -60 143 -3 0 -10 -10 -16 -22 -8 -19 0 -47
41 -153 203 -511 458 -850 731 -970 54 -24 103 -38 179 -50 l38 -6 -6 -61
c-10 -84 -17 -98 -90 -177 -94 -103 -136 -206 -136 -334 0 -52 65 -332 82
-354 7 -8 23 15 53 75 54 107 151 230 237 299 73 59 145 103 169 103 9 0 43
-14 75 -31 86 -46 167 -51 258 -14 76 30 143 30 161 0 68 -114 117 -158 226
-201 93 -37 117 -85 164 -331 29 -153 59 -227 113 -279 68 -67 115 -83 355
-125 70 -12 84 -23 43 -33 -14 -3 -38 -17 -54 -31 -30 -25 -32 -25 -197 -23
l-167 3 -18 53 c-36 102 -104 173 -215 224 -42 19 -67 23 -155 23 -94 0 -111
-3 -161 -28 -31 -15 -77 -45 -102 -67 l-46 -41 -96 25 c-53 13 -98 26 -101 28
-2 2 8 21 22 42 21 31 24 40 13 47 -23 14 -28 11 -57 -36 -17 -29 -32 -43 -42
-41 -8 3 -33 10 -56 15 -39 10 -41 13 -53 63 -16 73 -64 153 -113 188 -139
101 -314 36 -401 -148 -30 -63 -32 -73 -32 -182 1 -132 15 -177 82 -251 113
-126 287 -101 399 56 36 51 74 156 74 206 0 16 3 29 8 29 11 0 82 -21 82 -24
0 -1 -11 -30 -24 -63 -14 -33 -30 -90 -37 -128 -14 -83 -2 -132 42 -169 25
-21 41 -26 87 -26 79 0 101 7 95 31 -5 17 -12 19 -68 13 -59 -6 -65 -5 -89 19
-34 35 -35 107 -2 204 41 122 29 115 146 86 100 -25 100 -26 86 -48 -42 -64
-49 -199 -16 -289 30 -79 113 -166 198 -208 61 -30 74 -33 162 -33 86 0 101 3
162 32 127 60 210 168 224 294 l7 60 175 -3 176 -3 27 28 c15 15 41 30 58 33
19 4 31 13 31 23 0 22 68 26 134 7 86 -25 148 -108 167 -226 24 -148 -43 -296
-173 -382 -21 -14 -35 -29 -30 -34 4 -4 0 -3 -8 3 -11 9 -29 8 -70 -3 -60 -16
-120 -11 -184 14 -30 12 -43 25 -58 59 -18 41 -40 55 -53 33 -4 -6 4 -32 17
-58 30 -62 83 -91 175 -98 38 -3 88 -1 113 6 25 6 51 12 59 13 9 1 27 -49 60
-172 l47 -175 100 -59 c54 -32 134 -81 176 -109 64 -41 75 -52 64 -63 -7 -7
-16 -44 -19 -82 -16 -187 -130 -405 -298 -571 -155 -155 -355 -273 -584 -348
-92 -30 -123 -52 -97 -68 14 -9 234 70 333 119 253 127 466 322 582 535 47 86
93 226 106 324 6 44 13 81 15 83 1 2 29 -16 60 -38 40 -29 60 -38 65 -30 23
37 91 659 91 832 0 26 3 29 34 29 46 0 147 32 184 59 48 34 75 85 76 146 l0
53 141 5 c212 7 317 53 374 162 38 72 37 186 -1 268 -15 32 -39 72 -53 89 -14
17 -24 32 -22 34 8 8 508 -200 1065 -442 39 -18 38 -52 12 352 -38 585 -54
758 -91 979 -17 101 -18 121 -6 129 11 7 6 40 -30 195 -54 231 -51 221 -74
221 -24 0 -24 -2 11 -150 16 -68 28 -125 27 -126 -1 -1 -45 36 -97 83 -825
745 -1972 1271 -3130 1437 -278 39 -245 43 -285 -33z m-118 -1263 c-32 -17
-92 -62 -134 -99 -54 -47 -98 -76 -145 -95 -94 -38 -142 -81 -168 -152 -33
-92 -41 -103 -126 -187 -90 -89 -156 -195 -175 -282 -7 -29 -16 -53 -21 -53
-23 0 7 172 43 241 12 24 50 73 84 109 76 79 84 93 99 183 l11 71 73 18 c108
26 202 80 298 171 83 78 132 105 194 106 19 0 12 -7 -33 -31z m-217 -73 c0
-13 -158 -107 -203 -120 -132 -39 -100 9 37 55 50 16 105 39 121 49 31 20 45
25 45 16z m880 -1025 c17 -33 50 -168 50 -204 0 -32 44 -129 73 -163 46 -53
98 -81 195 -107 95 -25 160 -55 183 -82 13 -16 12 -17 -11 -11 -14 3 -79 15
-144 27 -247 43 -301 101 -357 386 -15 79 -37 162 -49 186 -11 23 -20 46 -20
52 0 17 61 -47 80 -84z m-1187 -190 c21 0 97 -87 118 -133 18 -41 23 -69 23
-137 -1 -103 -26 -177 -84 -243 -113 -128 -272 -113 -354 33 -29 51 -31 62
-31 157 0 56 2 104 5 107 3 3 22 1 43 -3 29 -7 37 -6 37 5 0 8 0 17 0 22 0 4
-13 11 -30 15 -16 4 -30 11 -30 16 0 4 14 29 31 55 56 84 152 132 229 114 19
-4 38 -8 43 -8z m3062 -21 c55 -21 93 -43 123 -72 92 -90 140 -205 126 -300
l-8 -52 -7 72 c-13 134 -74 225 -192 284 -70 35 -127 75 -127 90 0 12 -6 13
85 -22z m-2055 -235 c162 -73 238 -262 167 -417 -37 -81 -120 -158 -182 -169
-11 -1 -23 -7 -26 -11 -20 -27 -239 -12 -239 16 0 6 -3 8 -6 4 -12 -11 -80 31
-118 74 -102 112 -112 269 -26 394 91 132 276 178 430 109z"/>
<path d="M15791 12264 c-27 -35 -27 -66 2 -99 29 -35 89 -37 120 -6 27 26 28
83 2 111 -28 31 -97 28 -124 -6z"/>
<path d="M16666 12089 c-35 -28 -36 -80 -1 -114 30 -31 73 -32 109 -4 56 44
20 139 -54 139 -15 0 -39 -9 -54 -21z"/>
<path d="M22400 14999 c-153 -92 -173 -109 -151 -132 7 -7 316 167 345 194 9
8 -10 40 -23 38 -3 0 -80 -45 -171 -100z"/>
<path d="M9565 15060 c3 -14 2 -46 -3 -72 -5 -26 -6 -45 -2 -43 13 8 21 105
10 123 -8 14 -9 13 -5 -8z"/>
<path d="M8586 15044 c-8 -22 -8 -79 1 -70 7 6 14 86 8 86 -2 0 -6 -7 -9 -16z"/>
<path d="M8975 15004 c-1 -50 4 -50 15 0 5 23 4 36 -4 39 -7 3 -11 -11 -11
-39z"/>
<path d="M9541 15034 c0 -11 3 -14 6 -6 3 7 2 16 -1 19 -3 4 -6 -2 -5 -13z"/>
<path d="M9840 15045 c0 -5 5 -17 10 -25 5 -8 10 -10 10 -5 0 6 -5 17 -10 25
-5 8 -10 11 -10 5z"/>
<path d="M9843 14978 c1 -15 6 -23 11 -18 4 4 4 16 -2 26 -9 16 -10 14 -9 -8z"/>
<path d="M8625 14961 c3 -11 1 -22 -5 -26 -5 -3 -10 -1 -10 6 0 7 -3 10 -6 6
-3 -3 -1 -14 5 -24 6 -10 11 -13 12 -8 0 6 4 -1 8 -15 6 -19 8 -12 8 28 0 28
-4 52 -9 52 -5 0 -7 -9 -3 -19z"/>
<path d="M9583 14965 c4 -5 0 -16 -9 -26 -8 -9 -11 -20 -6 -23 5 -3 14 6 20
19 9 18 8 26 -1 31 -7 4 -9 3 -4 -1z"/>
<path d="M8886 14945 c-3 -8 -1 -15 3 -15 5 0 11 7 15 15 3 8 1 15 -3 15 -5 0
-11 -7 -15 -15z"/>
<path d="M8917 14924 c-10 -14 -16 -30 -14 -37 4 -8 6 -7 6 2 1 8 8 23 18 33
9 10 14 20 12 22 -2 2 -12 -7 -22 -20z"/>
<path d="M8950 14940 c0 -5 7 -7 15 -4 8 4 15 8 15 10 0 2 -7 4 -15 4 -8 0
-15 -4 -15 -10z"/>
<path d="M9775 14940 c-3 -5 -2 -10 4 -10 5 0 13 5 16 10 3 6 2 10 -4 10 -5 0
-13 -4 -16 -10z"/>
<path d="M9799 14913 c-13 -16 -12 -17 4 -4 16 13 21 21 13 21 -2 0 -10 -8
-17 -17z"/>
<path d="M8945 14910 c-3 -5 -1 -10 4 -10 6 0 11 5 11 10 0 6 -2 10 -4 10 -3
0 -8 -4 -11 -10z"/>
<path d="M8686 14867 c-18 -13 -18 -14 -1 -21 22 -8 37 4 26 22 -6 9 -11 9
-25 -1z"/>
<path d="M8887 14864 c2 -7 11 -10 19 -7 19 7 18 10 -5 16 -13 3 -18 1 -14 -9z"/>
<path d="M9637 14869 c7 -7 15 -10 18 -7 3 3 -2 9 -12 12 -14 6 -15 5 -6 -5z"/>
<path d="M8843 14843 c9 -2 23 -2 30 0 6 3 -1 5 -18 5 -16 0 -22 -2 -12 -5z"/>
<path d="M8755 14830 c-2 -4 6 -10 20 -12 14 -3 25 -1 25 4 0 5 6 6 13 2 6 -4
9 -3 5 1 -11 11 -57 15 -63 5z"/>
<path d="M14620 14831 c0 -6 4 -13 10 -16 6 -3 7 1 4 9 -7 18 -14 21 -14 7z"/>
<path d="M22299 14811 c-17 -17 -29 -40 -29 -55 0 -34 38 -75 77 -82 27 -5 37
-1 63 24 39 40 40 79 2 115 -37 36 -75 35 -113 -2z"/>
<path d="M16577 14577 c-3 -7 11 -29 30 -47 19 -19 50 -60 70 -92 37 -59 53
-72 53 -40 0 31 -65 121 -127 175 -16 14 -22 15 -26 4z"/>
<path d="M22250 14473 c-133 -116 -323 -254 -416 -301 -65 -33 -195 -53 -393
-59 l-184 -6 7 -127 7 -127 -45 -84 c-109 -205 -187 -484 -261 -941 -71 -436
-100 -806 -116 -1458 -10 -418 -5 -685 12 -674 5 3 9 0 9 -5 0 -6 -4 -12 -10
-12 -5 -1 -14 -2 -18 -3 -5 0 -16 -9 -25 -18 -16 -16 -16 -17 2 -15 11 0 17 5
14 11 -4 5 1 7 11 3 9 -4 15 -3 12 2 -3 5 1 12 10 15 9 3 14 13 10 21 -6 16
27 39 39 27 3 -4 6 -2 5 3 -6 28 1 44 18 40 11 -2 19 3 19 11 0 8 -6 13 -13
10 -8 -3 -11 0 -7 9 3 8 10 12 16 8 6 -3 7 -1 3 5 -8 14 22 82 36 82 6 0 8 7
4 15 -5 15 4 19 34 16 13 -2 13 -1 0 8 -8 5 -18 7 -23 4 -5 -3 -4 4 2 16 7 11
17 21 24 21 7 0 6 -4 -3 -10 -8 -5 -10 -10 -4 -10 18 0 25 12 14 25 -11 14 36
109 50 100 4 -3 11 6 14 20 4 14 11 25 17 25 6 0 8 4 5 9 -3 4 14 29 38 56 31
33 46 43 51 34 6 -8 4 -10 -5 -4 -9 6 -11 4 -5 -4 5 -9 11 -9 17 -3 6 6 19 7
32 2 19 -7 22 -4 21 14 0 13 -6 30 -13 39 -10 12 -10 17 -1 23 8 5 10 3 4 -7
-5 -8 6 1 23 19 31 31 50 42 37 22 -3 -6 1 -7 9 -4 9 3 13 11 9 17 -3 5 -1 7
4 4 6 -4 23 5 39 19 l28 27 18 -23 c10 -12 18 -19 18 -15 0 4 7 2 15 -5 8 -7
15 -18 14 -24 0 -7 -2 -6 -6 2 -2 6 -10 12 -16 12 -8 0 -8 -3 0 -11 6 -6 9
-19 6 -28 -4 -13 -3 -14 5 -2 9 13 13 13 28 0 11 -9 15 -9 10 -1 -11 19 13 14
45 -9 31 -22 30 -44 -2 -36 -11 3 -16 1 -13 -5 3 -5 16 -7 27 -4 12 3 28 0 36
-7 14 -11 14 -10 2 6 -16 20 -3 22 22 3 14 -11 15 -15 5 -20 -7 -3 -3 -3 8 -1
13 3 28 -1 37 -10 9 -8 22 -15 29 -15 10 -1 9 -4 -2 -13 -22 -18 -23 -38 -2
-30 14 6 15 4 5 -8 -9 -11 -7 -14 14 -16 15 0 22 2 17 5 -5 4 -16 16 -24 26
-14 18 -13 19 3 13 10 -4 17 -2 17 5 0 6 9 3 20 -7 11 -10 20 -15 20 -11 0 4
7 0 16 -9 10 -9 25 -14 35 -12 11 3 19 1 19 -5 0 -5 5 -6 11 -2 8 5 10 0 6
-17 -3 -13 -9 -48 -13 -77 -4 -29 -11 -55 -15 -58 -5 -3 -6 -16 -3 -30 4 -14
2 -24 -5 -24 -7 0 -9 -20 -4 -62 4 -36 2 -59 -3 -56 -5 4 -7 -18 -5 -50 3 -51
2 -55 -13 -43 -9 8 -16 9 -16 3 0 -6 9 -14 21 -17 16 -5 19 -12 15 -30 -4 -14
0 -28 10 -35 8 -7 13 -19 10 -27 -3 -8 -2 -12 3 -9 10 6 21 -17 21 -42 0 -15
-2 -15 -11 -2 -9 13 -10 13 -6 0 2 -8 10 -15 18 -15 9 0 14 -10 13 -26 -1 -18
5 -25 19 -26 18 -2 18 -1 2 11 -15 11 -16 14 -4 21 8 5 11 5 7 1 -3 -4 1 -16
10 -26 29 -31 57 -75 54 -83 -1 -5 2 -6 7 -3 5 3 19 -3 32 -13 19 -16 21 -21
11 -34 -10 -12 -10 -17 -1 -23 7 -4 9 -3 5 4 -10 17 10 23 39 12 23 -9 25 -13
15 -25 -7 -9 -15 -13 -19 -10 -3 3 0 10 8 14 9 6 7 10 -9 14 -17 4 -20 2 -15
-14 4 -11 2 -19 -4 -19 -6 0 -11 -5 -11 -11 0 -5 6 -7 13 -4 24 13 -38 -36
-65 -50 -17 -10 -29 -11 -33 -5 -4 6 -11 7 -17 4 -7 -4 -7 -9 0 -13 6 -4 -10
-18 -36 -31 -77 -40 -170 -114 -225 -180 -23 -26 -30 -30 -40 -20 -9 10 -9 11
2 5 10 -6 12 -4 6 5 -5 7 -4 11 1 8 12 -6 44 28 36 38 -4 4 0 4 8 -1 8 -5 12
-5 8 0 -4 4 -2 15 5 24 10 14 10 14 -3 5 -8 -6 -32 -10 -52 -9 -32 2 -36 0
-28 -15 10 -19 9 -38 -4 -59 -6 -9 -5 -12 1 -8 15 10 24 -20 10 -31 -7 -6 -21
-6 -36 -1 -20 8 -22 11 -10 26 12 15 12 16 -4 10 -10 -4 -21 -7 -23 -7 -3 0
-2 -4 1 -10 3 -5 1 -10 -4 -10 -17 0 -13 19 9 50 17 24 20 39 15 95 -6 77 -22
112 -67 150 -136 115 -336 30 -341 -147 l-2 -60 -40 7 c-22 3 -59 9 -82 12
-24 3 -43 10 -43 15 0 6 -11 7 -26 4 -18 -5 -24 -3 -19 5 5 8 -2 9 -25 4 -25
-6 -37 -2 -57 17 -21 18 -25 19 -20 5 8 -21 -5 -16 -40 16 -17 15 -20 24 -12
33 6 7 9 23 7 35 -3 21 -4 22 -18 4 -8 -10 -10 -16 -4 -12 6 3 11 0 11 -7 0
-11 -4 -12 -20 -3 -16 10 -24 6 -58 -33 -133 -150 -195 -411 -186 -785 5 -231
12 -260 85 -351 45 -56 96 -90 182 -122 23 -8 20 -11 -50 -59 -91 -61 -332
-246 -415 -317 -57 -50 -65 -53 -155 -69 -52 -10 -107 -20 -121 -23 l-26 -6
-6 149 c-11 311 -88 563 -237 778 -38 55 -93 136 -123 180 -141 208 -287 361
-406 423 -53 28 -121 50 -121 39 0 -3 18 -33 41 -67 106 -159 255 -514 294
-699 23 -109 18 -113 -28 -27 -53 98 -114 166 -149 166 -15 0 -29 -7 -33 -17
-4 -10 -9 -106 -11 -213 -10 -492 -14 -588 -28 -660 -17 -81 -82 -224 -116
-255 -21 -19 -21 -19 -16 5 5 21 16 150 50 606 5 56 3 62 -15 67 -11 3 -22 0
-23 -6 -2 -7 -11 -122 -20 -257 -37 -560 -117 -1158 -211 -1580 l-36 -165 -90
-90 c-49 -49 -115 -112 -148 -140 -73 -62 -81 -76 -39 -71 18 2 38 -2 46 -10
16 -16 32 -18 32 -4 0 6 5 10 11 10 6 0 9 -7 5 -15 -3 -8 -1 -15 3 -15 5 0 11
6 14 13 3 9 7 9 18 0 15 -12 19 -13 45 -13 8 0 12 -5 9 -10 -4 -6 -1 -17 5
-25 14 -17 40 -20 40 -5 0 5 -6 7 -14 4 -17 -6 -31 12 -16 21 5 3 10 1 10 -6
0 -7 3 -9 7 -6 3 4 15 -1 26 -10 10 -10 21 -17 23 -16 9 6 33 -10 28 -18 -3
-5 2 -6 10 -3 9 3 16 2 16 -4 0 -5 17 -19 38 -30 20 -11 36 -26 36 -35 -1 -9
4 -13 12 -10 9 3 15 -3 16 -18 0 -13 2 -31 2 -39 1 -10 12 -15 38 -15 20 0 34
-3 32 -6 -2 -4 5 -9 16 -12 15 -4 18 -10 13 -24 -3 -10 -2 -15 2 -10 11 10 66
-43 58 -56 -3 -6 -1 -7 5 -3 10 6 35 -24 62 -77 8 -16 24 -38 35 -50 25 -27
57 -77 50 -78 -3 -1 -9 -2 -14 -3 -5 0 -13 -4 -16 -8 -4 -4 4 -5 17 -3 22 4
25 2 22 -23 -2 -15 -1 -21 2 -14 7 14 11 8 52 -69 17 -33 17 -37 3 -47 -14 -9
-13 -10 3 -9 15 2 24 -10 37 -43 22 -61 33 -110 19 -90 -6 9 -10 10 -10 3 0
-7 8 -16 17 -22 11 -6 17 -22 17 -49 1 -22 4 -38 7 -36 10 6 20 -26 12 -38 -3
-7 -1 -8 5 -4 8 4 12 -1 13 -13 2 -33 4 -39 12 -47 11 -11 9 -26 -3 -19 -6 4
-7 -1 -3 -11 4 -12 3 -15 -5 -10 -8 5 -10 1 -5 -10 4 -12 3 -15 -5 -10 -7 4
-12 1 -12 -10 0 -13 3 -14 13 -5 8 6 18 7 22 3 5 -4 5 -1 1 6 -4 6 -3 12 2 12
6 0 13 -7 16 -16 8 -22 8 -26 -4 -19 -17 11 -11 -7 8 -21 10 -8 12 -13 5 -14
-7 0 -13 -5 -13 -11 0 -5 4 -8 9 -4 13 8 22 -10 23 -45 1 -17 5 -33 10 -36 14
-9 -2 -24 -19 -17 -9 4 -21 -1 -29 -12 -12 -16 -16 -16 -30 -4 -16 13 -16 12
-5 -10 8 -15 9 -21 2 -17 -6 4 -11 3 -11 -2 0 -15 -66 -41 -81 -31 -22 14 -35
10 -15 -4 17 -13 18 -14 2 -20 -12 -5 -15 -3 -11 6 4 6 0 4 -9 -7 -8 -10 -19
-15 -25 -11 -6 3 -11 2 -11 -4 0 -6 -18 -19 -39 -29 -34 -17 -39 -17 -36 -3 1
9 11 16 21 16 25 1 46 14 39 26 -4 5 -14 9 -23 8 -14 0 -13 -2 3 -9 19 -8 19
-9 -2 -9 -35 -1 -53 -12 -53 -32 0 -16 -54 -54 -82 -58 -5 -1 -9 -1 -10 -2
-14 -4 -39 -9 -68 -14 -19 -4 -39 -11 -45 -16 -7 -7 -3 -8 10 -4 14 5 13 2 -5
-8 -22 -13 -26 -13 -38 2 -13 15 -13 15 -8 -1 5 -18 -33 -54 -44 -40 -8 11
-32 14 -25 3 6 -11 -22 -28 -45 -26 -8 0 -18 -4 -22 -9 -8 -11 -100 -47 -93
-36 3 4 -2 11 -11 14 -20 8 -47 -13 -40 -31 3 -7 0 -13 -7 -14 -7 0 -21 -3
-32 -6 -11 -2 -28 -5 -37 -6 -9 -1 -14 -6 -11 -11 4 -5 -1 -7 -11 -3 -10 4
-24 1 -32 -8 -9 -8 -20 -15 -27 -15 -6 0 -2 7 9 15 10 8 14 15 8 15 -6 0 -20
-11 -32 -25 -17 -20 -28 -24 -49 -19 -20 5 -24 4 -18 -6 6 -10 3 -12 -13 -8
-12 4 -26 0 -33 -8 -6 -8 -16 -11 -21 -8 -6 4 -14 1 -18 -6 -4 -6 -25 -14 -46
-17 -22 -3 -41 -9 -44 -13 -3 -4 -22 -7 -42 -5 -37 2 -50 -8 -25 -19 6 -4 2
-4 -10 -2 -13 2 -23 1 -23 -4 0 -12 -39 -19 -46 -8 -4 6 -9 6 -13 2 -11 -15
-50 -34 -70 -34 -11 0 -22 -4 -26 -10 -3 -5 -12 -7 -20 -4 -7 3 -29 -1 -47 -9
-50 -21 -125 -37 -143 -31 -10 4 -15 2 -13 -6 2 -7 -3 -15 -11 -18 -8 -3 -11
0 -7 7 5 7 1 9 -8 5 -9 -3 -16 -10 -16 -14 0 -4 -12 -5 -27 -3 -23 4 -25 2
-13 -7 13 -10 12 -11 -4 -6 -10 4 -24 2 -31 -4 -7 -6 -26 -13 -41 -15 -51 -8
-63 -11 -70 -18 -4 -4 -14 -1 -22 6 -9 7 -13 7 -9 1 6 -11 -70 -40 -80 -30 -3
2 -22 -2 -44 -9 -21 -8 -39 -12 -39 -8 0 3 -6 1 -12 -5 -15 -12 -85 -27 -110
-23 -10 1 -18 -3 -18 -9 0 -7 -6 -10 -13 -7 -8 3 -20 1 -27 -3 -8 -5 -22 -4
-32 1 -13 7 -18 6 -16 -2 2 -7 -12 -14 -32 -16 -19 -3 -42 -9 -52 -14 -10 -6
-19 -5 -23 1 -3 5 -14 10 -23 10 -15 0 -15 -2 -2 -11 12 -8 9 -9 -12 -5 -16 4
-32 1 -40 -8 -19 -19 -106 -37 -115 -24 -3 6 -9 4 -15 -6 -5 -9 -21 -16 -35
-16 -15 0 -55 -7 -91 -16 -62 -16 -91 -13 -62 7 12 8 11 9 -5 7 -11 -2 -20
-10 -20 -18 0 -19 -89 -40 -168 -41 -32 0 -55 -4 -52 -8 7 -13 -48 -21 -62
-10 -7 7 -12 6 -15 -2 -4 -12 -99 -33 -196 -44 -66 -8 -90 -12 -101 -20 -6 -3
-41 -6 -80 -7 -39 0 -68 -5 -65 -10 3 -4 -15 -8 -40 -8 -25 0 -47 -4 -50 -9
-3 -5 -24 -8 -46 -7 -22 0 -40 -3 -40 -9 0 -5 -5 -4 -12 3 -15 15 -45 16 -53
2 -4 -7 3 -9 22 -5 19 4 23 3 13 -3 -14 -9 -55 -16 -165 -28 -22 -3 -46 -7
-53 -9 -29 -10 -247 -20 -427 -19 -152 1 -198 4 -229 18 -21 9 -49 16 -62 16
-12 0 -25 4 -29 9 -3 5 -19 9 -35 9 -17 -1 -40 8 -52 18 -19 17 -21 17 -15 2
6 -16 -1 -18 -56 -19 -34 -1 -78 -4 -97 -7 -84 -11 -1071 -7 -1220 6 -236 20
-529 51 -690 73 -294 41 -774 126 -955 170 -44 10 -89 21 -100 23 -65 14 -511
122 -623 152 -74 20 -136 33 -139 31 -10 -11 30 -186 60 -257 44 -106 130
-193 205 -209 29 -6 72 -11 96 -11 l42 0 12 -137 c29 -334 112 -702 214 -943
53 -127 126 -272 152 -305 l22 -27 729 116 c414 66 733 112 738 107 4 -4 31
-102 58 -217 183 -764 234 -934 350 -1167 77 -152 180 -294 259 -357 l42 -33
-20 39 c-35 70 -110 298 -152 465 -48 192 -95 435 -145 754 -20 127 -47 296
-60 376 -29 169 -30 189 -11 189 10 0 29 -96 75 -382 124 -763 173 -972 329
-1418 19 -55 20 -55 113 -103 636 -324 1548 -396 2354 -187 464 120 774 312
891 551 28 58 270 787 359 1082 33 113 114 435 150 597 9 42 20 82 25 90 8 13
59 10 382 -19 205 -18 377 -37 382 -41 5 -5 15 -6 23 -3 14 6 294 -14 325 -23
18 -5 73 86 173 285 146 292 266 687 290 956 3 39 8 87 11 108 l6 38 48 -45
c66 -62 118 -86 183 -86 50 0 77 11 318 133 399 201 719 396 1019 620 73 56
141 102 150 102 19 2 81 48 166 123 48 43 108 77 319 179 555 267 707 332 741
319 34 -13 4 -89 -71 -181 -25 -30 -42 -55 -38 -55 11 0 94 50 163 98 107 75
188 150 281 262 48 58 105 119 128 134 41 29 103 55 132 56 19 0 45 -26 31
-32 -5 -1 -33 -50 -62 -108 -110 -222 -280 -433 -423 -524 -51 -33 -56 -39
-47 -57 12 -21 12 -21 80 25 118 78 229 196 330 351 62 96 155 281 153 307 -2
22 51 58 83 58 26 0 34 -17 34 -73 0 -59 -41 -217 -56 -217 -6 0 -39 -57 -73
-126 -111 -229 -225 -402 -348 -527 -61 -62 -65 -69 -51 -83 15 -15 21 -12 68
32 63 59 157 179 229 292 72 114 204 380 197 398 -7 17 36 47 60 42 26 -5 36
-53 29 -147 -7 -112 -32 -215 -61 -259 -13 -19 -24 -39 -24 -44 0 -18 -122
-222 -184 -308 -33 -47 -103 -127 -154 -179 -81 -81 -92 -95 -80 -108 13 -12
21 -9 60 24 85 71 209 218 277 331 46 74 49 65 5 -15 -77 -141 -143 -234 -239
-342 -54 -60 -586 -467 -816 -624 -491 -335 -1025 -584 -1596 -746 -258 -73
-457 -107 -773 -131 -80 -6 -146 -13 -147 -14 -2 -2 6 -50 17 -107 105 -532
313 -872 629 -1029 142 -71 296 -97 627 -107 544 -15 1018 83 1479 306 597
289 1060 740 1413 1376 195 351 314 731 417 1330 32 182 87 577 82 582 -2 1
-25 -12 -52 -29 -79 -50 -240 -127 -316 -153 -38 -13 -69 -22 -69 -20 0 2 24
18 53 35 184 113 385 284 474 404 34 46 41 62 32 72 -6 8 -14 14 -18 14 -4 0
-37 -38 -74 -84 -83 -105 -219 -220 -399 -339 -76 -50 -138 -96 -138 -103 0
-16 -91 -46 -127 -42 -24 3 -28 8 -31 38 -3 31 1 37 25 46 48 18 232 164 327
258 103 102 162 176 229 286 42 68 45 76 30 88 -24 18 -26 17 -53 -35 -77
-147 -258 -342 -442 -478 -57 -42 -116 -88 -132 -101 -23 -19 -38 -24 -70 -22
-40 3 -41 4 -44 42 -5 62 4 80 64 121 117 81 292 276 421 470 81 122 136 222
128 235 -15 25 -37 3 -96 -97 -125 -210 -321 -450 -446 -543 -32 -24 -66 -53
-76 -64 -27 -29 -53 -10 -50 38 3 47 28 93 142 266 128 191 168 259 205 344
24 54 35 70 49 68 9 -2 17 -1 17 2 0 2 20 92 45 199 25 108 45 202 45 211 0 9
-8 16 -20 16 -22 0 -21 4 -80 -255 -40 -178 -41 -180 -81 -217 -65 -60 -159
-77 -159 -29 0 40 91 255 267 636 38 83 94 222 123 310 29 88 56 164 61 169
12 14 212 -29 354 -75 244 -80 493 -231 634 -386 58 -63 63 -66 79 -50 16 16
11 23 -83 115 -158 155 -357 274 -591 355 -106 37 -312 87 -358 87 -31 0 -30
-3 -11 49 8 23 29 54 47 69 198 161 387 400 489 617 161 343 183 756 55 1059
-18 43 -30 -16 109 519 l46 179 -25 64 c-14 35 -26 72 -26 82 0 10 -5 23 -11
29 -8 8 -7 13 2 18 8 6 10 4 4 -5 -5 -9 -4 -11 4 -6 8 6 9 12 2 20 -6 7 -9 16
-6 19 3 4 2 5 -2 2 -3 -3 -12 3 -20 13 -12 16 -13 16 -7 -3 5 -16 4 -17 -5 -5
-14 20 -14 30 2 30 8 0 14 7 14 15 0 12 -3 12 -16 2 -9 -8 -12 -8 -8 -1 4 7 0
15 -9 18 -10 4 -13 13 -9 28 4 16 3 19 -3 10 -7 -11 -10 -11 -15 2 -4 9 -3 24
0 33 6 15 7 15 14 -3 5 -13 8 -14 8 -4 0 8 -3 22 -8 29 -6 9 -6 22 1 34 7 14
7 17 -1 13 -6 -4 -11 -2 -11 3 0 6 -5 11 -12 11 -9 0 -9 -3 0 -12 19 -19 14
-30 -7 -18 -31 16 -53 42 -47 55 3 8 -2 16 -11 19 -9 4 -13 13 -9 24 6 16 5
16 -7 0 -13 -16 -15 -16 -27 10 -8 15 -13 31 -11 35 1 5 -3 6 -8 3 -11 -7 -53
43 -46 54 3 4 -2 13 -10 20 -8 7 -15 9 -15 4 0 -4 -13 5 -30 21 -16 15 -27 32
-24 36 5 8 -15 23 -32 24 -6 0 -34 21 -62 47 -28 25 -72 59 -96 75 -25 15 -45
35 -43 43 1 8 -3 15 -8 15 -6 0 -9 -3 -8 -7 2 -4 -4 -5 -12 -1 -12 4 -13 9 -4
19 8 9 8 14 1 14 -6 0 -14 -5 -17 -10 -8 -13 -25 -3 -25 13 0 8 3 8 9 -1 7
-11 9 -11 14 1 5 15 -15 18 -28 5 -8 -7 -74 33 -75 45 0 5 6 5 13 1 8 -5 8 -2
-2 9 -14 18 -26 23 -16 8 3 -5 1 -12 -5 -16 -5 -3 -10 -1 -10 4 0 6 -3 10 -7
10 -24 -4 -35 2 -29 18 4 9 1 20 -6 25 -10 6 -10 8 0 8 6 0 12 5 12 11 0 8 -5
8 -15 -1 -11 -9 -12 -16 -5 -25 6 -8 7 -16 2 -19 -11 -7 -52 22 -52 36 0 7 7
3 15 -8 8 -10 15 -14 15 -7 0 6 3 20 6 30 5 15 4 16 -5 3 -10 -13 -13 -13 -25
3 -16 21 -29 8 -20 -18 6 -15 4 -16 -14 -6 -12 7 -22 16 -22 21 0 5 -7 6 -17
3 -10 -4 -14 -2 -10 4 5 7 0 9 -13 6 -23 -6 -26 6 -7 27 6 8 1 6 -12 -5 -22
-18 -24 -18 -18 -2 4 9 2 17 -3 17 -6 0 -10 -5 -10 -11 0 -6 -5 -7 -12 -2 -7
4 -20 9 -29 10 -33 5 -70 23 -65 32 3 5 -1 11 -9 14 -10 4 -12 1 -8 -11 6 -16
5 -16 -13 -1 -10 9 -25 14 -31 12 -7 -3 -16 3 -19 12 -5 13 -9 14 -15 4 -6
-11 -14 -11 -42 -1 -18 7 -47 12 -63 13 -27 0 -28 1 -6 9 14 6 32 6 48 -1 15
-5 29 -8 31 -5 2 2 -9 8 -24 13 -31 10 -100 10 -110 0 -3 -4 -12 1 -19 11 -9
13 -10 20 -1 31 8 10 8 13 1 8 -7 -4 -42 34 -87 96 -99 135 -150 180 -261 232
-112 52 -311 125 -440 161 -85 24 -96 29 -96 49 0 38 59 342 91 470 116 461
297 823 685 1371 50 71 124 169 163 217 39 48 71 91 71 97 0 5 5 10 12 10 7 0
6 6 -4 18 -8 9 -20 38 -26 63 -7 26 -14 54 -18 63 -4 11 2 19 19 25 14 5 28
14 31 20 4 6 -5 4 -20 -4 -23 -11 -29 -11 -40 0 -16 15 -19 29 -5 20 5 -3 13
0 17 6 4 7 3 9 -2 6 -19 -11 -32 8 -73 108 -36 84 -48 104 -83 128 -22 16 -42
26 -45 24 -2 -3 3 -26 11 -51 15 -45 15 -48 -5 -75 -42 -57 -152 -137 -269
-196 -366 -184 -927 -266 -1196 -175 l-59 20 86 -5 c101 -6 271 9 354 30 33 9
85 28 115 43 68 33 198 160 269 262 60 85 135 210 129 215 -2 2 -37 -26 -78
-62z m-985 -3222 c6 -10 -11 -24 -32 -27 -16 -3 -17 8 -1 24 14 14 25 15 33 3z
m3028 -824 c3 -8 2 -20 -3 -27 -6 -10 -10 -8 -19 7 -10 19 -6 33 10 33 4 0 9
-6 12 -13z m-2644 -378 c-14 -27 -36 -30 -33 -6 1 12 3 22 3 22 1 1 10 1 20 1
15 0 17 -4 10 -17z m931 -36 c8 -4 18 -6 21 -5 4 1 15 -8 24 -18 20 -22 7 -28
-15 -7 -12 10 -12 9 -1 -5 15 -21 56 -25 45 -5 -4 6 -4 9 0 5 4 -3 6 -8 4 -10
-1 -2 7 -14 20 -28 24 -26 29 -68 10 -89 -11 -11 -10 -13 4 -8 11 4 18 -1 22
-19 8 -29 -3 -76 -15 -68 -5 3 -5 -5 -1 -17 5 -12 6 -34 4 -48 -4 -21 -6 -23
-12 -7 -6 17 -7 17 -20 0 -8 -10 -10 -15 -4 -11 7 4 15 0 18 -9 4 -10 2 -13
-6 -8 -7 5 -9 2 -6 -7 7 -18 -44 -95 -60 -92 -7 2 -9 -4 -5 -15 6 -15 5 -16
-12 -2 -17 14 -18 13 -12 -2 8 -21 -48 -66 -56 -46 -3 8 -6 6 -6 -5 -1 -10 -5
-16 -10 -12 -5 3 -12 1 -15 -3 -3 -5 -16 -9 -28 -8 -18 1 -22 7 -21 24 2 15
-3 22 -15 22 -14 0 -15 -2 -2 -10 11 -7 11 -10 2 -10 -7 0 -11 -4 -8 -8 2 -4
-4 -9 -15 -9 -21 -2 -26 13 -6 20 9 4 9 6 -1 6 -7 1 -15 -6 -18 -14 -6 -16
-35 -20 -48 -7 -4 4 -12 8 -17 8 -5 1 -12 2 -16 3 -4 0 1 7 10 14 14 11 14 14
2 31 -8 11 -15 15 -15 10 0 -6 5 -15 11 -21 7 -7 4 -12 -10 -16 -15 -4 -27 5
-47 35 -17 24 -30 35 -34 27 -5 -7 -10 -8 -14 -1 -9 15 10 24 34 17 12 -4 17
-12 14 -23 -5 -14 -4 -15 5 -2 16 23 14 28 -18 35 -29 6 -29 7 -16 38 7 18 18
33 24 33 6 1 13 3 16 4 3 1 10 4 15 5 6 1 13 4 18 5 4 1 10 2 15 1 4 0 7 4 7
9 0 6 5 10 11 10 5 0 7 -6 3 -12 -5 -7 7 -1 25 15 18 15 36 27 41 27 5 0 19 4
32 9 13 5 26 8 29 7 3 0 13 5 22 12 9 8 21 11 27 7 5 -3 10 0 10 7 0 9 3 9 10
-2 6 -10 10 -11 10 -2 0 14 36 16 45 2 3 -5 13 -10 21 -10 19 0 13 24 -7 26
-32 3 -33 5 -19 14 24 16 40 12 50 -12 8 -22 9 -21 7 5 -1 15 -4 27 -8 27 -3
0 -11 11 -17 26 -12 24 -13 24 -40 10 -56 -31 -99 -44 -113 -34 -10 7 -9 8 6
3 16 -5 18 -4 7 6 -10 11 -16 10 -30 -5 -9 -11 -11 -16 -4 -12 6 4 12 3 12 -2
0 -5 -11 -14 -25 -20 -15 -7 -25 -8 -25 -2 0 6 5 10 12 10 6 0 9 2 6 5 -9 10
-38 -7 -31 -18 3 -6 1 -7 -5 -3 -7 4 -12 2 -12 -3 0 -6 -5 -11 -10 -11 -14 0
8 42 26 53 8 4 14 13 14 18 0 6 -7 3 -16 -5 -18 -18 -30 -20 -39 -6 -4 6 -11
7 -17 4 -7 -5 -2 -11 12 -16 21 -8 22 -10 6 -26 -9 -10 -13 -22 -9 -27 5 -4
-4 -6 -19 -3 -21 4 -25 2 -21 -11 5 -12 3 -13 -6 -5 -12 11 -5 44 10 44 4 0 6
6 3 13 -3 8 2 20 10 27 9 7 13 17 9 24 -4 6 1 5 10 -2 17 -15 37 -9 37 11 0 7
-4 6 -10 -3 -8 -13 -10 -12 -10 3 0 12 -4 16 -12 11 -8 -5 -6 2 3 16 9 14 26
25 37 24 17 -1 20 4 16 32 -4 36 19 69 42 60 8 -3 14 -1 14 5 0 6 6 9 13 6 6
-2 21 -1 31 3 20 7 58 3 86 -7z m-1639 -54 c57 -17 107 -33 111 -35 10 -7 -27
-108 -56 -150 -50 -73 -122 -96 -164 -51 -36 39 -47 140 -26 245 6 28 10 28
135 -9z m1441 -31 c-13 -13 -24 5 -16 27 7 16 8 16 17 0 6 -11 6 -20 -1 -27z
m-164 -456 c-8 -9 -7 -11 7 -6 11 5 21 1 27 -10 5 -9 14 -14 19 -10 5 3 8 0 7
-7 -2 -7 7 -18 20 -24 13 -5 25 -20 29 -32 4 -17 12 -23 32 -22 24 2 24 2 3 6
-16 3 -22 9 -18 20 3 8 6 18 6 23 0 5 9 8 21 7 14 -1 19 -7 16 -19 -3 -10 -2
-18 2 -18 4 0 8 -7 9 -15 1 -8 3 -22 4 -30 1 -8 5 -12 10 -9 5 3 14 1 21 -5 7
-5 19 -9 27 -7 8 2 32 6 54 11 27 5 40 4 46 -5 8 -13 50 -5 50 11 0 5 9 9 19
9 11 0 23 5 26 10 10 17 25 11 18 -7 -4 -11 -3 -14 5 -9 7 4 12 13 12 20 0 16
37 28 45 16 3 -5 1 -11 -4 -14 -5 -3 -7 -15 -4 -27 4 -12 0 -25 -8 -30 -8 -5
-9 -9 -4 -9 12 0 8 -138 -4 -155 -4 -5 -6 -32 -5 -58 1 -41 -1 -47 -15 -42
-13 5 -14 4 -3 -6 6 -7 12 -17 12 -22 0 -4 -6 -5 -12 -1 -10 6 -10 4 0 -7 6
-7 12 -17 12 -22 0 -4 -6 -5 -12 -1 -8 5 -7 0 2 -11 9 -11 10 -16 3 -11 -7 4
-13 2 -13 -3 0 -6 5 -11 11 -11 6 0 7 -5 2 -12 -4 -7 -8 -35 -9 -62 -1 -27 -7
-52 -14 -56 -7 -4 -10 -15 -7 -25 4 -9 3 -14 -2 -11 -5 3 -12 -1 -15 -10 -3
-8 -2 -12 4 -9 19 12 10 -14 -12 -35 -17 -16 -19 -20 -5 -15 13 6 16 3 11 -9
-3 -9 -12 -16 -20 -16 -8 0 -14 -9 -14 -19 0 -11 -4 -22 -10 -26 -5 -3 -7 -12
-3 -20 3 -10 -1 -15 -13 -15 -15 0 -16 2 -5 9 9 6 10 11 2 15 -6 4 -9 12 -5
17 3 5 9 7 13 5 10 -6 7 31 -3 41 -4 5 -7 3 -6 -2 5 -21 0 -36 -10 -30 -8 5
-8 -35 -1 -62 2 -9 -5 -18 -12 -15 -5 1 -17 -8 -28 -20 -11 -13 -18 -16 -14
-8 4 10 2 9 -8 -2 -8 -10 -22 -18 -31 -18 -10 0 -15 -4 -12 -9 4 -5 -15 -17
-41 -26 -27 -9 -56 -21 -67 -27 -10 -5 -21 -6 -25 -1 -9 13 -75 17 -66 4 3 -6
11 -9 16 -5 6 3 18 3 27 -1 14 -5 10 -10 -18 -25 -42 -23 -63 -25 -36 -5 32
24 9 17 -32 -9 -20 -14 -50 -27 -67 -30 -16 -3 -48 -10 -69 -15 -22 -5 -43 -8
-47 -5 -4 2 -20 -1 -35 -6 -21 -8 -29 -8 -36 2 -6 10 -8 10 -8 -1 0 -11 -3
-11 -15 -1 -10 9 -15 9 -15 1 0 -14 -75 -15 -101 -1 -13 7 -19 7 -19 0 0 -16
-61 -12 -123 9 -31 10 -54 13 -50 8 4 -7 -1 -8 -13 -3 -10 5 -25 9 -31 9 -10
0 -10 3 0 15 10 13 9 14 -10 3 -13 -6 -23 -9 -23 -7 0 3 10 15 23 27 12 12 17
19 10 15 -7 -4 -21 1 -33 11 -18 16 -70 29 -54 14 3 -3 9 -6 12 -6 4 0 17 -7
28 -15 18 -13 19 -17 8 -28 -9 -9 -14 -9 -14 -2 0 7 -6 10 -12 7 -7 -2 -42 12
-78 31 -68 36 -87 50 -58 39 10 -3 20 -2 23 3 4 6 -2 10 -12 10 -15 0 -16 2
-3 10 8 5 10 10 4 10 -6 0 -17 -7 -24 -15 -11 -13 -16 -12 -42 6 -23 17 -27
24 -16 30 8 5 2 8 -17 6 -23 -2 -30 2 -30 16 0 22 -31 42 -40 27 -6 -9 8 -14
28 -11 5 1 6 -3 2 -9 -8 -14 -46 6 -42 23 1 7 -8 12 -19 12 -12 1 -29 7 -38
14 -9 7 -16 11 -16 7 0 -4 -19 3 -42 15 -39 20 -41 22 -23 35 10 8 23 14 29
14 5 0 7 3 4 6 -4 3 -19 -1 -35 -9 -23 -12 -32 -13 -46 -3 -9 7 -14 15 -11 18
3 3 7 18 10 34 3 16 10 34 16 41 6 7 7 13 3 13 -4 0 0 11 9 25 10 15 12 25 6
25 -6 0 -8 5 -4 11 5 8 9 8 14 -1 4 -7 12 -10 18 -6 19 11 261 13 259 2 -1 -6
9 -12 23 -13 l25 -2 -25 7 c-38 12 -11 22 72 29 40 3 78 10 84 15 6 4 19 6 27
2 9 -3 29 1 44 10 40 23 146 61 161 58 6 -2 12 1 12 6 0 12 49 34 61 27 5 -4
9 -2 9 4 0 6 9 15 21 21 17 9 23 8 35 -7 16 -21 18 -10 4 18 -9 16 -7 19 10
19 12 0 18 4 15 10 -3 6 1 7 9 4 9 -3 14 -9 12 -13 -2 -3 6 -6 19 -6 13 0 21
3 18 8 -2 4 -10 7 -18 7 -17 0 -13 30 7 41 8 4 23 26 33 49 14 32 21 38 32 29
9 -8 13 -8 13 -1 0 6 -4 14 -10 17 -5 3 -10 11 -10 17 0 6 8 4 18 -5 15 -14
19 -15 19 -2 0 8 -5 11 -10 8 -6 -4 -8 1 -4 11 5 11 3 15 -5 10 -6 -4 -4 6 5
22 8 16 25 55 38 87 13 34 25 54 29 47 5 -8 9 -7 13 4 4 9 2 16 -4 16 -6 0 -7
5 -4 10 4 6 12 7 18 3 8 -4 8 -1 -1 9 -10 13 -10 19 3 32 9 8 15 18 15 21 0 3
2 16 6 30 l6 24 23 -27 c17 -20 20 -30 13 -40z m118 -61 c1 -6 0 -7 -3 -1 -2
5 -11 10 -18 10 -8 0 -17 4 -20 10 -4 6 2 7 16 1 13 -4 24 -13 25 -20z m259
-81 c-3 -5 -11 -10 -16 -10 -6 0 -7 5 -4 10 3 6 11 10 16 10 6 0 7 -4 4 -10z
m-2395 -903 c0 -1 -43 -45 -95 -97 l-95 -95 0 73 c0 70 1 73 28 83 37 14 162
42 162 36z m-1196 -2068 c-2 -4 2 -10 8 -12 7 -3 2 -5 -12 -4 -18 1 -25 7 -26
23 -2 20 1 21 16 11 10 -6 17 -14 14 -18z"/>
<path d="M22584 9951 c21 -23 26 -26 26 -11 0 5 -10 15 -22 21 -23 12 -23 12
-4 -10z"/>
<path d="M22565 9930 c3 -5 8 -10 11 -10 2 0 4 5 4 10 0 6 -5 10 -11 10 -5 0
-7 -4 -4 -10z"/>
<path d="M22671 9916 c7 -15 15 -23 17 -16 3 7 -3 19 -13 28 -15 16 -16 15 -4
-12z"/>
<path d="M22628 9904 c-38 -20 -36 -28 2 -9 17 9 30 18 30 20 0 7 -1 6 -32
-11z"/>
<path d="M22564 9894 c2 -10 8 -20 14 -22 17 -5 15 13 -2 27 -12 10 -14 9 -12
-5z"/>
<path d="M22615 9871 c-3 -6 -1 -11 5 -11 6 0 9 -4 6 -8 -3 -5 1 -9 9 -9 12 0
12 3 3 16 -7 9 -13 17 -14 19 -1 2 -5 -1 -9 -7z"/>
<path d="M22410 9829 c0 -5 5 -7 10 -4 6 3 10 8 10 11 0 2 -4 4 -10 4 -5 0
-10 -5 -10 -11z"/>
<path d="M22672 9730 c0 -14 2 -19 5 -12 2 6 2 18 0 25 -3 6 -5 1 -5 -13z"/>
<path d="M22433 9730 c-29 -12 -30 -24 -2 -15 16 5 20 4 15 -6 -4 -8 -1 -6 7
3 8 10 18 14 22 10 5 -4 5 -1 1 6 -8 14 -13 14 -43 2z"/>
<path d="M22390 9709 c0 -5 -4 -8 -9 -5 -5 3 -12 -1 -15 -9 -4 -13 -2 -14 14
-5 18 10 28 30 15 30 -3 0 -5 -5 -5 -11z"/>
<path d="M22642 9690 c0 -14 2 -19 5 -12 2 6 2 18 0 25 -3 6 -5 1 -5 -13z"/>
<path d="M22281 9610 c0 -8 4 -24 8 -34 7 -19 8 -18 14 4 3 13 4 26 2 29 -3 2
-5 -2 -6 -10 0 -8 -4 -6 -9 6 -5 13 -9 14 -9 5z"/>
<path d="M22599 9584 c17 -13 25 -14 34 -5 9 9 8 11 -5 6 -11 -4 -18 -2 -18 4
0 6 -8 11 -17 11 -14 0 -13 -3 6 -16z"/>
<path d="M22570 9570 c-13 -8 -12 -10 3 -10 9 0 17 5 17 10 0 12 -1 12 -20 0z"/>
<path d="M22277 9539 c4 -13 8 -18 11 -10 2 7 -1 18 -6 23 -8 8 -9 4 -5 -13z"/>
<path d="M22360 9510 c0 -5 7 -7 15 -4 8 4 15 8 15 10 0 2 -7 4 -15 4 -8 0
-15 -4 -15 -10z"/>
<path d="M22505 9510 c-3 -5 -13 -7 -23 -4 -14 5 -14 4 -2 -4 10 -8 18 -8 27
0 7 5 20 8 28 4 9 -3 13 -2 10 4 -8 13 -32 13 -40 0z"/>
<path d="M22347 9489 c7 -7 15 -10 18 -7 3 3 -2 9 -12 12 -14 6 -15 5 -6 -5z"/>
<path d="M22183 9503 c4 -6 1 -13 -5 -16 -7 -2 0 -4 15 -4 15 0 27 0 25 1 -2
1 -12 8 -22 16 -11 8 -17 10 -13 3z"/>
<path d="M22166 9455 c-11 -8 -15 -15 -9 -15 7 0 15 5 18 10 5 8 12 7 23 -2
15 -12 16 -11 3 5 -7 9 -14 17 -15 17 0 0 -10 -7 -20 -15z"/>
<path d="M22247 9433 c-4 -3 -7 -13 -7 -22 1 -13 3 -13 11 2 11 19 8 33 -4 20z"/>
<path d="M22266 9401 c-10 -15 -8 -18 27 -26 17 -5 27 -3 27 4 0 6 -7 8 -17 4
-12 -5 -14 -3 -8 7 5 8 4 11 -3 6 -5 -3 -12 -1 -14 6 -3 9 -6 9 -12 -1z"/>
<path d="M22101 9318 c-5 -15 -4 -26 2 -30 15 -9 27 0 26 20 0 14 -2 14 -10
-3 -8 -17 -9 -16 -6 8 5 33 -1 35 -12 5z"/>
<path d="M22626 9315 c-11 -8 -15 -15 -9 -15 6 0 20 -3 30 -6 15 -5 16 -4 3 5
-13 10 -13 12 0 21 8 5 11 10 5 10 -5 -1 -19 -7 -29 -15z"/>
<path d="M22141 9304 c0 -11 3 -14 6 -6 3 7 2 16 -1 19 -3 4 -6 -2 -5 -13z"/>
<path d="M22421 9294 c0 -11 3 -14 6 -6 3 7 2 16 -1 19 -3 4 -6 -2 -5 -13z"/>
<path d="M22488 9283 c7 -3 16 -2 19 1 4 3 -2 6 -13 5 -11 0 -14 -3 -6 -6z"/>
<path d="M22031 9154 c0 -11 3 -14 6 -6 3 7 2 16 -1 19 -3 4 -6 -2 -5 -13z"/>
<path d="M22682 9129 c-5 -19 -6 -38 -3 -44 3 -5 9 8 12 30 9 50 3 58 -9 14z"/>
<path d="M22046 9135 c-3 -8 -1 -15 4 -15 6 0 10 7 10 15 0 8 -2 15 -4 15 -2
0 -6 -7 -10 -15z"/>
<path d="M21990 9091 c0 -7 -5 -9 -12 -5 -7 5 -8 3 -3 -5 5 -9 10 -10 18 -2 6
6 8 14 4 18 -4 3 -7 1 -7 -6z"/>
<path d="M22640 9056 c0 -7 8 -20 18 -27 16 -13 16 -12 3 4 -13 16 -13 20 0
28 11 7 11 9 -3 9 -10 0 -18 -6 -18 -14z"/>
<path d="M21865 9000 c-3 -5 -1 -10 4 -10 6 0 11 5 11 10 0 6 -2 10 -4 10 -3
0 -8 -4 -11 -10z"/>
<path d="M21810 8980 c-12 -7 -10 -9 7 -7 12 0 19 5 17 9 -6 10 -6 10 -24 -2z"/>
<path d="M22654 8961 c2 -17 6 -35 10 -38 3 -4 4 8 2 26 -2 17 -6 35 -10 38
-3 4 -4 -8 -2 -26z"/>
<path d="M21718 8933 c7 -3 16 -2 19 1 4 3 -2 6 -13 5 -11 0 -14 -3 -6 -6z"/>
<path d="M21658 8917 c-27 -10 -39 -37 -17 -37 5 0 7 4 4 10 -3 5 6 12 20 16
14 3 25 10 25 15 0 5 -1 9 -2 8 -2 -1 -15 -6 -30 -12z"/>
<path d="M22655 8900 c3 -5 8 -10 11 -10 2 0 4 5 4 10 0 6 -5 10 -11 10 -5 0
-7 -4 -4 -10z"/>
<path d="M22646 8877 c3 -10 9 -15 12 -12 3 3 0 11 -7 18 -10 9 -11 8 -5 -6z"/>
<path d="M21110 8841 c0 -7 -4 -10 -9 -7 -4 3 -16 -3 -26 -14 -10 -11 -13 -20
-7 -20 6 0 16 8 21 18 10 16 10 15 11 -3 1 -18 2 -17 11 4 5 13 7 26 4 29 -3
3 -5 0 -5 -7z"/>
<path d="M21055 8710 c-16 -7 -17 -9 -3 -9 9 -1 20 4 23 9 7 11 7 11 -20 0z"/>
<path d="M21105 8681 c-3 -5 -2 -12 3 -15 5 -3 9 1 9 9 0 17 -3 19 -12 6z"/>
<path d="M21265 8620 c-3 -5 -1 -10 4 -10 6 0 11 5 11 10 0 6 -2 10 -4 10 -3
0 -8 -4 -11 -10z"/>
<path d="M21344 8542 c2 -9 8 -17 15 -18 8 -2 8 -1 0 3 -8 4 -8 7 1 13 9 5 8
9 -3 13 -10 4 -14 0 -13 -11z"/>
<path d="M21395 8550 c-3 -5 -2 -10 4 -10 5 0 13 5 16 10 3 6 2 10 -4 10 -5 0
-13 -4 -16 -10z"/>
<path d="M22406 8535 c-3 -8 -1 -15 3 -15 5 0 18 -3 28 -6 17 -5 17 -5 0 6 -9
6 -15 15 -12 21 4 5 2 9 -3 9 -6 0 -12 -7 -16 -15z"/>
<path d="M21450 8470 c8 -5 20 -10 25 -10 6 0 3 5 -5 10 -8 5 -19 10 -25 10
-5 0 -3 -5 5 -10z"/>
<path d="M21490 8451 c0 -5 7 -12 16 -15 14 -5 15 -4 4 9 -14 17 -20 19 -20 6z"/>
<path d="M23206 14125 c-9 -26 -7 -32 5 -12 6 10 9 21 6 23 -2 3 -7 -2 -11
-11z"/>
<path d="M23231 14130 c0 -8 6 -23 13 -33 12 -16 15 -16 26 -2 8 9 9 15 4 14
-21 -4 -33 2 -37 19 -3 12 -5 13 -6 2z"/>
<path d="M23290 14090 c-9 -6 -10 -10 -3 -10 6 0 15 5 18 10 8 12 4 12 -15 0z"/>
<path d="M23330 14071 c0 -6 11 -17 25 -23 26 -12 34 -28 13 -28 -9 0 -9 -3
-1 -11 7 -7 17 -8 29 -1 11 5 25 7 33 4 12 -4 12 -3 0 10 -10 11 -16 13 -21 4
-7 -10 -12 -1 -9 17 0 4 -2 6 -6 6 -22 -4 -33 2 -27 14 4 6 4 9 -1 5 -4 -4
-14 -3 -22 3 -9 9 -13 8 -13 0z"/>
<path d="M23130 14036 c0 -2 8 -10 18 -17 15 -13 16 -12 3 4 -13 16 -21 21
-21 13z"/>
<path d="M23445 14001 c-3 -5 -2 -12 3 -15 5 -3 9 1 9 9 0 17 -3 19 -12 6z"/>
<path d="M23478 13989 c10 -14 10 -18 -4 -23 -9 -3 -21 -3 -26 1 -7 3 -8 1 -4
-5 9 -15 18 -15 40 1 17 12 17 14 -1 28 -16 13 -17 12 -5 -2z"/>
<path d="M23166 13965 c-10 -27 -7 -35 12 -34 10 0 12 3 5 6 -20 7 -15 23 5
17 10 -4 13 -2 7 3 -5 4 -13 12 -16 16 -4 4 -9 1 -13 -8z"/>
<path d="M23504 13948 c-5 -8 -2 -9 10 -5 13 5 17 3 13 -6 -3 -9 4 -13 23 -13
16 0 27 3 24 7 -2 5 -12 5 -21 2 -10 -4 -14 -2 -10 4 4 6 0 14 -9 17 -21 8
-22 8 -30 -6z"/>
<path d="M23641 13869 c15 -12 18 -19 8 -16 -9 3 -22 1 -30 -4 -9 -5 -4 -7 16
-5 17 2 32 4 34 5 8 2 -32 41 -42 41 -5 0 1 -9 14 -21z"/>
<path d="M23600 13870 c0 -5 5 -10 11 -10 5 0 7 5 4 10 -3 6 -8 10 -11 10 -2
0 -4 -4 -4 -10z"/>
<path d="M23165 13840 c-3 -5 -1 -10 4 -10 6 0 11 5 11 10 0 6 -2 10 -4 10 -3
0 -8 -4 -11 -10z"/>
<path d="M23730 13800 c0 -5 -9 -10 -19 -10 -10 0 -22 -7 -25 -16 -5 -13 -3
-14 6 -6 19 15 30 15 39 0 7 -10 9 -10 9 0 0 21 20 13 30 -13 5 -14 17 -25 25
-25 9 0 13 -4 10 -10 -3 -6 1 -7 10 -4 11 5 14 2 9 -10 -6 -16 -13 -14 -44 8
-9 6 -5 1 8 -12 18 -17 27 -20 42 -12 20 11 39 -3 20 -15 -5 -3 -10 -11 -10
-18 0 -6 7 -2 15 9 14 19 15 19 21 -3 3 -11 15 -23 25 -26 12 -3 0 15 -33 49
-28 30 -60 54 -71 54 -10 0 -16 4 -13 9 3 4 -8 20 -24 35 -17 14 -30 22 -30
16z"/>
<path d="M23760 13690 c0 -5 5 -10 11 -10 5 0 7 5 4 10 -3 6 -8 10 -11 10 -2
0 -4 -4 -4 -10z"/>
<path d="M23852 13644 c-7 -7 -12 -18 -12 -24 0 -17 28 -23 43 -8 10 11 10 16
-3 29 -13 12 -19 13 -28 3z m19 -27 c-13 -13 -26 -3 -16 12 3 6 11 8 17 5 6
-4 6 -10 -1 -17z"/>
<path d="M4791 13569 c-96 -108 -206 -246 -269 -339 -45 -67 -49 -76 -35 -87
14 -11 23 -2 66 60 71 104 170 229 261 330 69 77 77 90 65 103 -13 12 -24 4
-88 -67z"/>
<path d="M23898 13607 c-10 -7 -9 -8 3 -4 15 5 45 -28 31 -36 -4 -2 -2 -3 4
-1 6 1 16 -2 22 -8 21 -21 24 14 3 36 -23 24 -42 28 -63 13z m63 -30 c12 -22
12 -22 -10 -3 -11 11 -21 23 -21 28 0 14 19 -1 31 -25z"/>
<path d="M10366 13513 c7 -49 22 -163 35 -255 20 -154 23 -168 42 -168 23 0
23 1 -19 312 -26 189 -28 198 -49 198 -22 0 -22 0 -9 -87z"/>
<path d="M23920 13540 c0 -5 5 -12 10 -15 6 -3 10 -1 10 6 0 8 4 8 15 -1 12
-10 18 -10 30 0 14 12 19 7 16 -13 -1 -5 3 -6 9 -2 11 7 14 -8 3 -19 -13 -12
-11 -33 3 -33 7 0 11 4 8 9 -3 4 0 8 7 8 6 0 9 -8 6 -19 -3 -14 1 -18 22 -17
14 1 27 -5 27 -11 1 -7 3 -16 4 -20 1 -5 2 -11 1 -15 0 -4 7 -4 16 -1 14 6 14
8 -3 20 -10 7 -14 13 -8 13 5 0 -6 15 -23 33 -18 17 -44 46 -58 62 -19 24 -27
27 -34 16 -5 -8 -14 -10 -22 -5 -20 12 -39 14 -39 4z m145 -80 c3 -5 1 -10 -4
-10 -6 0 -11 5 -11 10 0 6 2 10 4 10 3 0 8 -4 11 -10z"/>
<path d="M23241 13374 c0 -11 3 -14 6 -6 3 7 2 16 -1 19 -3 4 -6 -2 -5 -13z"/>
<path d="M24126 13377 c3 -10 9 -15 12 -12 3 3 0 11 -7 18 -10 9 -11 8 -5 -6z"/>
<path d="M24086 13372 c-2 -4 4 -8 14 -8 10 0 16 4 14 8 -3 4 -9 8 -14 8 -5 0
-11 -4 -14 -8z"/>
<path d="M23218 13240 c-2 -66 0 -120 5 -120 4 0 7 54 7 120 0 66 -2 120 -4
120 -3 0 -6 -54 -8 -120z"/>
<path d="M24170 13300 c-9 -6 -10 -10 -3 -10 6 0 10 -9 8 -20 -2 -11 0 -22 6
-25 5 -4 9 -11 9 -17 0 -7 -4 -7 -13 1 -10 8 -14 7 -14 -4 0 -8 4 -12 9 -9 4
3 8 -1 8 -8 0 -8 5 -6 11 5 6 10 7 23 2 30 -5 7 -8 24 -7 40 0 15 1 27 0 27
-1 0 -8 -5 -16 -10z"/>
<path d="M4922 13142 c-156 -236 -285 -474 -388 -720 -37 -86 -41 -104 -28
-109 21 -8 26 -1 74 112 97 230 235 484 381 702 80 120 87 133 70 142 -16 9
-30 -8 -109 -127z"/>
<path d="M24200 13273 c0 -6 5 -15 11 -18 6 -4 8 -13 5 -21 -6 -15 10 -29 18
-16 3 5 -4 21 -15 38 -10 16 -19 24 -19 17z"/>
<path d="M24256 13164 c-8 -20 0 -32 14 -18 5 5 5 15 1 22 -6 11 -10 10 -15
-4z"/>
<path d="M24249 13129 c0 -2 -3 -17 -5 -34 l-4 -30 15 25 c9 15 14 19 15 10 0
-13 1 -13 10 0 5 8 10 11 10 6 0 -6 -12 -23 -27 -39 -23 -24 -24 -28 -7 -19
12 6 25 8 29 4 5 -4 5 -2 1 5 -3 6 -2 14 4 18 9 6 14 -7 11 -27 0 -5 5 -7 12
-5 7 1 11 -6 9 -16 -2 -9 1 -25 7 -34 7 -13 9 -8 6 22 -2 22 -9 41 -15 43 -5
2 -8 8 -4 13 3 5 0 9 -6 9 -6 0 -9 4 -6 9 3 5 -1 14 -9 21 -8 7 -15 9 -15 5 0
-4 -7 -2 -15 5 -8 7 -15 11 -16 9z"/>
<path d="M24340 12954 c0 -8 5 -12 10 -9 6 4 8 11 5 16 -9 14 -15 11 -15 -7z"/>
<path d="M24326 12923 c5 -5 12 -12 16 -18 4 -6 8 -2 8 8 0 9 -7 17 -17 17 -9
0 -12 -3 -7 -7z"/>
<path d="M24376 12913 c-6 -14 -5 -15 5 -6 7 7 10 15 7 18 -3 3 -9 -2 -12 -12z"/>
<path d="M24385 12890 c-3 -5 -1 -10 4 -10 6 0 11 5 11 10 0 6 -2 10 -4 10 -3
0 -8 -4 -11 -10z"/>
<path d="M24405 12840 c3 -5 8 -10 11 -10 2 0 4 5 4 10 0 6 -5 10 -11 10 -5 0
-7 -4 -4 -10z"/>
<path d="M24423 12768 c1 -15 6 -23 11 -18 4 4 4 16 -2 26 -9 16 -10 14 -9 -8z"/>
<path d="M24405 12708 c2 -25 15 -35 15 -12 1 13 5 9 15 -13 8 -18 17 -33 20
-33 3 0 1 9 -5 20 -6 11 -10 28 -8 37 2 10 -4 17 -18 18 -14 1 -20 -4 -19 -17z"/>
<path d="M23182 12660 c0 -14 2 -19 5 -12 2 6 2 18 0 25 -3 6 -5 1 -5 -13z"/>
<path d="M15942 12602 c-7 -5 -10 -16 -6 -26 6 -15 14 -17 49 -11 71 10 120
-17 170 -93 5 -6 35 11 35 21 0 21 -52 78 -90 97 -40 21 -133 27 -158 12z"/>
<path d="M24483 12556 c0 -18 3 -24 9 -18 7 7 7 16 0 28 -8 14 -9 13 -9 -10z"/>
<path d="M23160 12515 c0 -5 5 -17 10 -25 5 -8 10 -10 10 -5 0 6 -5 17 -10 25
-5 8 -10 11 -10 5z"/>
<path d="M23193 12435 c0 -22 2 -30 4 -17 2 12 2 30 0 40 -3 9 -5 -1 -4 -23z"/>
<path d="M24496 12414 c-3 -26 -4 -49 -2 -52 3 -2 8 17 11 43 4 25 5 48 3 51
-3 2 -8 -17 -12 -42z"/>
<path d="M16883 12422 c-35 -3 -43 -7 -43 -23 0 -17 7 -19 58 -19 97 -1 163
-44 213 -141 20 -41 26 -44 47 -30 29 18 -67 154 -132 188 -39 20 -88 29 -143
25z"/>
<path d="M23172 12375 c0 -16 2 -22 5 -12 2 9 2 23 0 30 -3 6 -5 -1 -5 -18z"/>
<path d="M23150 12348 c0 -9 5 -20 11 -23 6 -4 8 -14 4 -24 -4 -11 -3 -13 5
-5 8 8 6 19 -5 40 -9 18 -15 23 -15 12z"/>
<path d="M24482 12300 c0 -14 2 -19 5 -12 2 6 2 18 0 25 -3 6 -5 1 -5 -13z"/>
<path d="M24520 12291 c0 -5 5 -13 10 -16 6 -3 10 -2 10 4 0 5 -4 13 -10 16
-5 3 -10 2 -10 -4z"/>
<path d="M23140 12257 c0 -14 5 -29 10 -32 7 -4 8 3 4 22 -9 38 -14 42 -14 10z"/>
<path d="M23170 12260 c0 -17 17 -47 23 -40 2 3 -2 16 -10 30 -7 14 -13 18
-13 10z"/>
<path d="M24489 12215 c-3 -6 -3 -21 1 -35 3 -14 8 -20 11 -15 3 6 3 21 -1 35
-3 14 -8 20 -11 15z"/>
<path d="M24510 12125 c0 -19 2 -35 4 -35 2 0 6 16 8 35 2 19 0 35 -4 35 -4 0
-8 -16 -8 -35z"/>
<path d="M24542 12100 c0 -14 2 -19 5 -12 2 6 2 18 0 25 -3 6 -5 1 -5 -13z"/>
<path d="M7153 11948 c-99 -200 -232 -522 -374 -910 -69 -188 -77 -220 -59
-248 8 -13 10 -13 14 0 54 153 154 419 217 581 l81 206 75 63 c95 80 253 267
253 300 0 22 -17 5 -97 -95 -96 -120 -219 -243 -205 -205 21 54 93 211 136
297 33 68 42 93 33 102 -6 6 -14 11 -17 11 -4 0 -29 -46 -57 -102z"/>
<path d="M23100 12014 c0 -14 4 -23 9 -20 5 3 7 15 4 26 -7 28 -13 25 -13 -6z"/>
<path d="M23081 11914 c0 -11 3 -14 6 -6 3 7 2 16 -1 19 -3 4 -6 -2 -5 -13z"/>
<path d="M23072 11831 c-7 -18 -7 -29 -2 -26 6 4 10 14 11 23 0 14 2 13 9 -3
6 -13 9 -15 9 -5 0 8 -3 21 -8 28 -6 10 -11 6 -19 -17z"/>
<path d="M17648 11757 c-98 -44 -178 -83 -178 -86 0 -3 4 -13 10 -21 13 -21
365 137 365 165 0 10 -4 19 -10 21 -5 1 -90 -34 -187 -79z"/>
<path d="M23074 11746 c0 -19 4 -32 8 -30 10 7 10 35 0 51 -5 8 -8 -1 -8 -21z"/>
<path d="M8915 11763 c-61 -8 -162 -33 -235 -59 -61 -21 -103 -28 -225 -35
-179 -10 -240 -24 -365 -86 -80 -40 -110 -62 -185 -138 -65 -65 -100 -109
-125 -160 -36 -72 -149 -220 -310 -405 -185 -213 -234 -397 -171 -643 27 -104
79 -211 170 -350 99 -150 118 -194 137 -305 27 -158 66 -210 264 -352 124 -89
226 -137 345 -160 89 -18 108 -26 180 -75 121 -82 144 -89 320 -89 133 -1 156
2 206 22 66 26 115 69 136 120 10 24 18 87 23 177 7 158 18 191 92 291 l44 61
28 -61 c37 -77 128 -170 182 -185 91 -25 166 -2 227 70 35 40 36 45 21 56 -15
11 -23 6 -58 -31 -107 -114 -246 -68 -332 111 -20 40 -41 73 -49 73 -29 0 -46
183 -24 263 13 49 63 105 114 128 77 35 199 17 257 -38 23 -22 32 -24 65 -19
140 24 210 107 234 274 9 67 18 94 49 140 48 75 91 109 214 174 215 112 290
248 289 523 0 281 -58 449 -188 547 -28 21 -70 45 -95 54 -74 26 -196 29 -315
9 -129 -22 -207 -15 -421 41 -223 58 -366 74 -499 57z m1281 -168 c50 -29 106
-90 135 -147 77 -150 101 -445 49 -609 -44 -141 -104 -207 -261 -289 -104 -53
-144 -83 -182 -135 -23 -31 -28 -34 -22 -15 17 60 60 98 206 190 78 49 123
105 161 201 30 75 37 330 14 469 -23 130 -79 245 -157 321 l-57 57 36 -10 c20
-5 55 -20 78 -33z m-2520 -561 c-20 -42 -65 -115 -100 -163 -121 -164 -141
-232 -133 -456 10 -261 34 -380 101 -515 39 -77 67 -155 51 -138 -21 20 -191
293 -216 345 -47 99 -69 201 -69 322 1 180 39 261 231 491 63 76 126 155 140
174 37 54 34 26 -5 -60z"/>
<path d="M23007 11534 c6 -15 23 -19 23 -5 0 5 -7 11 -14 14 -10 4 -13 1 -9
-9z"/>
<path d="M23000 11490 c-11 -7 -12 -12 -4 -20 8 -8 13 -6 17 9 3 12 4 21 4 21
-1 0 -9 -5 -17 -10z"/>
<path d="M23020 11475 c0 -5 5 -17 10 -25 5 -8 10 -10 10 -5 0 6 -5 17 -10 25
-5 8 -10 11 -10 5z"/>
<path d="M23004 11435 c-3 -8 -4 -20 -2 -27 3 -7 7 -1 10 15 6 29 1 36 -8 12z"/>
<path d="M22976 11363 c-6 -15 -8 -15 -16 -3 -6 8 -10 10 -10 4 0 -5 6 -18 13
-27 9 -13 16 -14 27 -6 13 9 12 10 -2 5 -21 -6 -23 5 -6 22 6 6 9 14 6 17 -3
3 -9 -2 -12 -12z"/>
<path d="M23012 11275 c-11 -12 -10 -15 3 -15 8 0 15 7 15 15 0 18 -2 18 -18
0z"/>
<path d="M23160 11270 c0 -5 4 -10 9 -10 6 0 13 5 16 10 3 6 -1 10 -9 10 -9 0
-16 -4 -16 -10z"/>
<path d="M25673 11252 c-10 -6 -6 -35 16 -122 52 -207 81 -466 81 -737 0 -159
0 -163 21 -163 21 0 21 0 16 243 -6 306 -33 518 -89 715 -22 74 -24 77 -45 64z"/>
<path d="M18853 11233 c-4 -9 -2 -18 5 -21 6 -2 59 -35 119 -74 126 -83 341
-291 413 -400 42 -62 68 -80 77 -52 6 17 -111 169 -201 263 -45 46 -117 111
-161 146 -79 62 -222 155 -238 155 -4 0 -11 -8 -14 -17z"/>
<path d="M17250 11204 c-115 -81 -351 -178 -530 -217 -187 -42 -306 -44 -488
-11 -32 6 -33 5 -31 -22 3 -19 -14 -64 -49 -134 -118 -238 -141 -486 -66 -708
49 -147 148 -270 280 -347 36 -21 68 -44 69 -49 2 -6 6 -68 10 -138 5 -114 4
-128 -10 -128 -24 0 -152 -61 -220 -105 -33 -21 -88 -65 -123 -99 -90 -85
-232 -280 -295 -403 l-17 -32 48 -24 c78 -40 184 -112 242 -166 l55 -51 -67
30 c-97 43 -231 80 -316 87 -71 6 -76 8 -112 47 -38 41 -39 41 -113 41 -65 0
-78 -3 -109 -27 l-35 -27 -94 20 c-118 25 -356 28 -469 6 -41 -8 -80 -12 -88
-10 -7 3 -18 -1 -25 -10 -7 -8 -29 -20 -50 -27 -27 -8 -37 -17 -35 -28 4 -21
22 -20 123 7 191 51 410 51 599 0 l41 -11 -90 -30 c-492 -160 -914 -595 -1136
-1170 -19 -49 -37 -88 -41 -88 -4 0 -15 35 -25 78 -13 57 -18 115 -17 227 0
129 4 164 27 249 32 118 116 296 181 384 47 63 54 97 19 90 -26 -5 -146 -189
-189 -288 -111 -261 -123 -545 -34 -792 62 -170 171 -331 323 -474 204 -192
425 -297 719 -340 148 -22 390 -15 531 15 481 102 803 395 910 829 19 75 19
84 5 99 -22 22 -35 10 -43 -40 -13 -73 -64 -219 -105 -294 -76 -141 -175 -254
-305 -345 -73 -52 -144 -92 -151 -86 -2 3 3 39 11 82 27 142 45 319 52 504 6
180 6 182 -15 182 -24 0 -28 -25 -36 -237 -6 -148 -28 -346 -54 -473 l-17 -85
-45 -21 c-115 -55 -329 -94 -514 -94 -287 0 -543 74 -762 220 -153 102 -331
305 -411 469 l-27 54 24 66 c76 215 183 424 308 601 87 123 300 337 422 423
113 79 303 176 417 211 l82 25 57 -34 c38 -23 70 -35 95 -35 32 0 44 -8 97
-65 167 -178 261 -396 297 -692 6 -43 11 -53 25 -53 11 0 21 4 24 9 3 4 -1 53
-9 107 -40 267 -119 450 -270 627 -63 74 -65 78 -50 99 8 13 15 33 15 45 0 19
4 22 23 19 12 -3 49 -8 82 -11 80 -9 224 -57 312 -105 63 -34 74 -37 81 -23 8
13 17 6 52 -38 69 -86 148 -212 190 -302 l39 -82 458 -152 c430 -143 877 -283
902 -283 6 0 11 8 11 18 0 15 -42 31 -237 90 -130 40 -237 73 -238 74 -1 2
-12 352 -24 778 -24 844 -26 880 -46 880 -8 0 -16 -4 -19 -8 -3 -5 2 -208 9
-453 8 -244 15 -472 15 -507 l0 -63 -227 273 c-125 150 -301 360 -392 466 -92
107 -165 202 -166 215 -2 12 -6 85 -10 161 -6 132 -6 138 12 132 95 -38 173
-49 363 -50 178 -1 195 0 195 16 0 16 -18 18 -180 21 -253 6 -385 39 -526 133
-118 78 -199 196 -241 351 -31 116 -29 295 5 424 25 97 95 264 106 253 3 -3
11 -27 16 -52 l10 -47 90 2 c161 3 421 68 589 148 152 72 314 205 361 295 19
36 11 37 -35 4z m-1655 -2500 c21 -19 26 -32 23 -61 -2 -29 -8 -38 -30 -45
-39 -13 -98 6 -143 47 l-39 36 21 20 c41 42 125 43 168 3z"/>
<path d="M21173 11183 c-12 -13 -18 -23 -13 -23 5 0 7 -7 4 -15 -4 -8 -10 -12
-15 -9 -5 3 -9 0 -9 -5 0 -16 20 -13 26 4 4 8 10 13 14 10 5 -3 12 0 16 6 4 8
3 9 -4 5 -16 -9 -15 17 0 32 6 6 10 13 7 15 -2 2 -14 -7 -26 -20z"/>
<path d="M23343 11184 c0 -7 7 -10 14 -7 8 3 13 0 11 -8 -2 -8 4 -14 12 -14 8
0 15 6 15 13 0 7 7 17 15 22 9 6 10 10 3 10 -6 0 -15 -4 -18 -10 -3 -5 -11
-10 -16 -10 -6 0 -8 4 -5 8 2 4 -3 8 -13 8 -10 0 -18 -6 -18 -12z"/>
<path d="M23416 11168 c3 -5 10 -6 15 -3 13 9 11 12 -6 12 -8 0 -12 -4 -9 -9z"/>
<path d="M24511 11164 c0 -11 3 -14 6 -6 3 7 2 16 -1 19 -3 4 -6 -2 -5 -13z"/>
<path d="M11594 11115 c-88 -19 -199 -68 -290 -127 -97 -64 -271 -236 -342
-339 -47 -69 -50 -78 -35 -90 14 -12 18 -10 32 11 173 265 419 457 649 505
123 26 302 12 440 -34 54 -18 82 -15 82 9 0 10 -162 58 -235 70 -82 14 -228
11 -301 -5z"/>
<path d="M24512 11105 c0 -16 2 -22 5 -12 2 9 2 23 0 30 -3 6 -5 -1 -5 -18z"/>
<path d="M21076 11053 c-3 -7 -2 -12 3 -9 5 3 12 -4 15 -17 l7 -22 10 24 c5
13 7 26 4 29 -12 12 -34 9 -39 -5z"/>
<path d="M24486 11039 c3 -5 10 -7 15 -4 5 4 13 -4 18 -17 l10 -23 0 23 c1 12
-2 22 -6 23 -5 0 -16 2 -26 4 -9 2 -15 -1 -11 -6z"/>
<path d="M21380 11030 c0 -5 8 -7 18 -6 9 2 20 -1 23 -6 3 -5 9 -4 11 4 4 9
-3 14 -23 14 -16 1 -29 -2 -29 -6z"/>
<path d="M21470 11033 c0 -13 29 -38 35 -31 3 3 -4 13 -15 23 -11 10 -20 13
-20 8z"/>
<path d="M21550 11034 c0 -8 32 -33 43 -34 4 0 -2 9 -13 20 -21 21 -30 25 -30
14z"/>
<path d="M23680 11024 c6 -6 6 -15 2 -19 -4 -5 -1 -5 6 -1 7 4 10 11 7 16 -3
5 3 11 12 13 10 3 6 4 -9 4 -19 -1 -24 -5 -18 -13z"/>
<path d="M23746 11027 c3 -10 9 -15 12 -12 3 3 0 11 -7 18 -10 9 -11 8 -5 -6z"/>
<path d="M21442 11011 c-8 -4 -30 -7 -50 -5 -20 1 -29 0 -19 -3 9 -2 15 -9 11
-14 -3 -5 -10 -6 -16 -3 -7 4 -8 2 -4 -5 4 -6 1 -14 -7 -16 -19 -8 -10 -58 15
-84 16 -18 17 -22 4 -27 -8 -3 -14 -14 -13 -24 1 -10 5 -16 9 -14 5 3 6 9 3
13 -2 5 7 9 20 9 29 0 34 -14 8 -21 -13 -3 -12 -5 5 -6 17 -1 23 4 20 17 -2 9
-12 16 -22 15 -12 -1 -15 2 -8 9 14 14 55 -1 48 -18 -3 -7 0 -16 6 -20 6 -4 8
-3 4 4 -4 7 3 10 21 8 15 -2 29 -8 31 -14 2 -6 9 -9 17 -6 17 7 29 -12 14 -22
-8 -5 -9 -3 -4 6 5 9 4 11 -4 6 -17 -11 -4 -25 17 -19 18 4 92 -32 92 -46 0
-11 41 -11 61 0 11 6 20 6 24 -1 10 -17 25 -11 18 7 -4 10 -2 14 5 9 6 -3 14
-2 17 4 4 6 1 9 -7 8 -7 -2 -12 3 -10 11 2 8 -3 11 -12 8 -9 -4 -18 -2 -21 3
-3 5 3 11 12 13 14 4 15 5 2 6 -14 1 -42 42 -43 66 -1 6 -6 10 -13 10 -6 0
-15 4 -20 8 -4 5 -2 7 6 5 7 -2 16 3 19 11 3 9 0 11 -7 6 -8 -4 -11 -1 -9 8 2
9 -1 16 -7 16 -5 0 -9 -7 -7 -15 3 -13 -1 -13 -17 -4 -12 6 -21 15 -21 21 0 6
-3 8 -8 5 -4 -2 -24 8 -45 24 -21 15 -34 31 -28 34 12 8 41 -3 41 -16 0 -5 -5
-6 -12 -2 -7 4 -8 3 -4 -4 4 -6 14 -8 23 -5 12 5 14 3 8 -7 -6 -9 -4 -11 5 -5
9 6 11 4 5 -5 -5 -9 -4 -11 4 -6 6 4 14 0 17 -9 6 -14 8 -14 19 1 8 12 18 15
31 10 15 -6 17 -5 6 6 -9 9 -17 10 -30 2 -13 -9 -21 -7 -38 11 -36 39 -63 49
-92 34 -19 -11 -26 -11 -29 -2 -2 7 -11 9 -20 6 -11 -4 -14 -2 -9 5 8 14 6 15
-12 3z m298 -255 c0 -11 -19 -15 -25 -6 -3 5 1 10 9 10 9 0 16 -2 16 -4z"/>
<path d="M23718 11013 c10 -4 9 -8 -4 -17 -13 -10 -14 -15 -4 -21 8 -5 11 -4
7 2 -4 6 0 14 9 17 17 6 10 26 -9 25 -8 0 -8 -2 1 -6z"/>
<path d="M21071 10989 c-7 -12 -10 -23 -8 -26 3 -3 11 5 17 17 15 28 8 35 -9
9z"/>
<path d="M24501 10988 c-1 -15 4 -30 9 -33 12 -7 12 12 0 40 -8 18 -9 17 -9
-7z"/>
<path d="M21100 10970 c0 -5 5 -10 11 -10 5 0 7 5 4 10 -3 6 -8 10 -11 10 -2
0 -4 -4 -4 -10z"/>
<path d="M21293 10929 c-6 -16 -7 -29 -2 -29 5 0 9 7 9 15 0 7 7 18 16 23 13
8 14 10 2 15 -9 3 -18 -5 -25 -24z"/>
<path d="M23824 10929 c-1 -16 2 -29 6 -29 7 0 7 46 0 54 -3 2 -6 -9 -6 -25z"/>
<path d="M24481 10944 c0 -11 3 -14 6 -6 3 7 2 16 -1 19 -3 4 -6 -2 -5 -13z"/>
<path d="M21332 10910 c0 -14 2 -19 5 -12 2 6 2 18 0 25 -3 6 -5 1 -5 -13z"/>
<path d="M21768 10923 c7 -3 16 -2 19 1 4 3 -2 6 -13 5 -11 0 -14 -3 -6 -6z"/>
<path d="M21766 10898 c4 -6 10 -25 14 -42 l6 -31 5 32 c3 20 2 30 -5 26 -5
-4 -7 1 -3 10 4 11 1 17 -9 17 -9 0 -12 -5 -8 -12z"/>
<path d="M18874 10887 c-3 -8 73 -91 179 -198 101 -101 226 -236 279 -299 89
-107 236 -301 256 -336 8 -15 42 -10 42 6 0 26 -255 348 -407 515 -115 127
-320 325 -335 325 -5 0 -11 -6 -14 -13z"/>
<path d="M21022 10891 c-11 -7 -11 -9 0 -14 9 -3 15 1 15 9 0 8 -1 14 -1 14
-1 0 -7 -4 -14 -9z"/>
<path d="M20981 10857 c-13 -21 -12 -21 5 -5 10 10 16 20 13 22 -3 3 -11 -5
-18 -17z"/>
<path d="M21702 10865 c-7 -8 -9 -15 -4 -15 5 0 15 7 22 15 16 19 -1 19 -18 0z"/>
<path d="M23887 10874 c-7 -7 101 -109 116 -109 6 0 11 7 12 16 2 11 -4 15
-21 13 -24 -2 -52 21 -40 33 4 4 11 1 16 -7 6 -8 10 -10 10 -4 0 13 -32 44
-46 44 -5 0 -2 -4 6 -10 8 -5 11 -12 8 -16 -4 -3 -18 3 -32 14 -14 10 -22 22
-19 26 3 3 4 6 1 6 -2 0 -7 -3 -11 -6z m118 -102 c-3 -3 -11 0 -18 7 -9 10 -8
11 6 5 10 -3 15 -9 12 -12z"/>
<path d="M21027 10843 c-4 -3 -7 -11 -7 -17 0 -6 5 -5 12 2 6 6 9 14 7 17 -3
3 -9 2 -12 -2z"/>
<path d="M20990 10829 c0 -5 5 -7 10 -4 6 3 10 8 10 11 0 2 -4 4 -10 4 -5 0
-10 -5 -10 -11z"/>
<path d="M21710 10831 c0 -6 4 -13 10 -16 6 -3 7 1 4 9 -7 18 -14 21 -14 7z"/>
<path d="M24066 10783 c-6 -14 -5 -15 5 -6 7 7 10 15 7 18 -3 3 -9 -2 -12 -12z"/>
<path d="M21536 10758 c-18 -10 -18 -12 -2 -23 16 -12 56 -9 56 4 -1 24 -27
34 -54 19z"/>
<path d="M24043 10754 c4 -7 6 -18 5 -25 -2 -7 4 -13 12 -14 8 0 15 -7 15 -15
1 -8 7 -14 14 -12 18 4 43 -19 37 -34 -3 -7 2 -11 12 -10 9 2 17 8 18 15 2 7
1 8 -3 1 -3 -7 -11 -3 -20 10 -19 26 -10 38 14 19 16 -13 17 -12 4 4 -11 13
-11 17 -1 17 8 0 11 2 9 5 -3 2 -19 1 -35 -4 -28 -8 -60 7 -48 23 2 3 1 4 -2
1 -4 -2 -14 4 -23 13 -9 10 -12 13 -8 6z"/>
<path d="M24492 10750 c0 -14 2 -19 5 -12 2 6 2 18 0 25 -3 6 -5 1 -5 -13z"/>
<path d="M21603 10735 c0 -7 6 -11 14 -8 7 3 13 6 13 8 0 2 -6 5 -13 8 -8 3
-14 -1 -14 -8z"/>
<path d="M25547 10742 c-11 -2 -16 -10 -13 -20 52 -184 82 -729 57 -1013 -15
-159 -43 -327 -77 -461 -29 -116 -28 -108 -5 -108 15 0 23 15 39 78 30 112 60
279 76 427 17 160 20 549 6 711 -11 127 -48 362 -58 379 -4 6 -15 9 -25 7z"/>
<path d="M20936 10728 c3 -5 10 -6 15 -3 13 9 11 12 -6 12 -8 0 -12 -4 -9 -9z"/>
<path d="M21365 10630 c-3 -6 1 -7 9 -4 18 7 21 14 7 14 -6 0 -13 -4 -16 -10z"/>
<path d="M21427 10627 c4 -7 0 -8 -11 -4 -10 4 -15 3 -11 -3 3 -5 1 -18 -5
-27 -11 -16 -11 -16 -6 -1 3 10 0 20 -7 24 -7 4 -9 4 -5 -1 4 -4 0 -14 -10
-21 -16 -12 -16 -14 2 -31 10 -10 16 -12 12 -5 -4 6 -3 12 3 12 5 0 8 -13 6
-30 -3 -22 1 -31 16 -35 11 -4 17 -10 15 -14 -10 -15 75 -11 99 5 14 9 25 12
25 6 0 -6 -6 -12 -12 -15 -7 -2 3 -4 23 -4 32 1 36 4 34 24 -2 24 -15 45 -15
26 0 -5 -7 -10 -14 -10 -10 0 -14 10 -13 29 2 28 8 34 20 21 4 -3 2 -12 -4
-19 -8 -9 -6 -11 8 -8 12 3 19 15 19 34 1 17 -2 27 -7 24 -13 -8 -11 10 4 26
10 12 9 12 -6 1 -11 -9 -15 -21 -11 -33 5 -17 3 -18 -15 -9 -11 6 -26 19 -33
29 -15 21 -114 30 -101 9z m160 -121 c-5 -16 -27 -19 -27 -3 0 7 7 14 15 14 9
0 14 -5 12 -11z"/>
<path d="M21530 10636 c0 -4 7 -14 15 -22 8 -9 15 -11 15 -6 0 5 -7 15 -15 22
-8 7 -15 9 -15 6z"/>
<path d="M20725 10565 c-27 -25 -45 -45 -38 -45 7 0 18 9 26 20 13 19 64 45
81 41 5 -1 4 5 -4 13 -7 9 -13 16 -14 16 0 0 -23 -20 -51 -45z"/>
<path d="M24457 10603 c-9 -9 -9 -41 1 -46 4 -3 7 8 7 24 0 16 0 29 -1 29 0 0
-4 -3 -7 -7z"/>
<path d="M24402 10585 c0 -11 3 -29 8 -40 11 -25 11 1 0 35 -6 20 -8 21 -8 5z"/>
<path d="M24431 10554 c0 -11 3 -14 6 -6 3 7 2 16 -1 19 -3 4 -6 -2 -5 -13z"/>
<path d="M21362 10510 c1 -18 8 -25 25 -26 13 -1 23 2 23 8 0 5 -4 7 -9 3 -5
-3 -17 5 -25 17 l-16 23 2 -25z"/>
<path d="M20680 10506 c0 -2 8 -10 18 -17 15 -13 16 -12 3 4 -13 16 -21 21
-21 13z"/>
<path d="M24441 10494 c0 -11 3 -14 6 -6 3 7 2 16 -1 19 -3 4 -6 -2 -5 -13z"/>
<path d="M24417 10469 c4 -13 8 -18 11 -10 2 7 -1 18 -6 23 -8 8 -9 4 -5 -13z"/>
<path d="M20965 10469 c-4 -6 -5 -12 -2 -15 2 -3 7 2 10 11 7 17 1 20 -8 4z"/>
<path d="M21030 10455 c-12 -13 -27 -22 -32 -19 -5 3 -15 3 -23 0 -19 -7 -8
-36 13 -36 13 0 12 3 -4 15 -17 13 -17 14 -2 15 24 0 26 -8 19 -67 -4 -29 -4
-53 1 -53 4 0 8 -4 8 -9 0 -4 -12 -6 -26 -3 -19 3 -25 1 -20 -6 5 -8 1 -10
-10 -5 -11 4 -15 2 -11 -4 4 -6 -4 -9 -21 -7 -15 2 -44 5 -64 5 -24 1 -38 6
-38 15 0 7 -4 15 -9 18 -5 4 -7 -4 -4 -16 3 -14 1 -19 -4 -12 -10 13 -107 18
-99 5 3 -4 17 -6 31 -3 21 4 25 1 25 -21 0 -19 6 -27 23 -29 13 -2 21 -9 19
-18 -3 -12 -1 -13 9 -2 15 14 65 16 74 2 3 -5 11 -10 16 -10 6 0 7 5 4 10 -3
6 -2 10 4 10 5 0 13 -5 17 -11 3 -6 15 -9 25 -6 10 3 22 0 26 -5 3 -7 1 -8 -5
-4 -8 5 -10 1 -5 -10 4 -11 3 -15 -5 -10 -6 3 -15 -2 -21 -11 -7 -13 -10 -14
-11 -4 0 8 -2 12 -5 9 -10 -10 7 -38 24 -37 9 0 11 3 4 5 -7 3 -9 12 -6 20 4
11 8 12 20 3 8 -7 13 -8 12 -3 -5 15 12 54 22 54 5 0 9 -4 9 -9 0 -5 7 -11 15
-15 9 -3 15 0 15 10 0 8 -5 12 -11 9 -6 -4 -5 2 2 13 7 12 17 18 22 15 4 -3 8
1 6 8 -3 27 1 38 19 42 14 4 14 5 -3 6 -17 1 -18 3 -5 11 10 6 11 10 3 10 -9
0 -13 19 -13 60 0 48 -3 60 -16 60 -14 0 -14 1 0 16 15 15 20 24 13 24 -2 0
-14 -11 -27 -25z m-35 -175 c3 -5 1 -10 -4 -10 -6 0 -11 5 -11 10 0 6 2 10 4
10 3 0 8 -4 11 -10z"/>
<path d="M21073 10464 c-12 -11 -14 -17 -6 -20 7 -3 11 -11 9 -17 -1 -7 -1 -9
1 -4 8 13 25 8 20 -6 -3 -8 0 -14 7 -14 23 0 13 29 -13 38 -20 8 -22 12 -11
19 9 6 17 5 21 -2 4 -7 9 -7 13 0 10 17 -21 21 -41 6z"/>
<path d="M20985 10460 c-3 -6 1 -7 9 -4 18 7 21 14 7 14 -6 0 -13 -4 -16 -10z"/>
<path d="M20623 10421 c0 -11 5 -18 9 -15 4 3 5 11 1 19 -7 21 -12 19 -10 -4z"/>
<path d="M11716 10209 c-42 -104 -74 -195 -70 -200 18 -30 41 8 110 181 41
101 74 190 74 197 0 7 -9 13 -19 13 -15 0 -34 -37 -95 -191z"/>
<path d="M24410 10389 c0 -5 5 -7 10 -4 6 3 10 8 10 11 0 2 -4 4 -10 4 -5 0
-10 -5 -10 -11z"/>
<path d="M20603 10375 c-30 -33 35 -99 73 -75 17 10 16 11 -7 6 -33 -7 -52 14
-52 55 0 16 -1 29 -1 29 -1 -1 -7 -7 -13 -15z"/>
<path d="M10165 10323 c-69 -36 -120 -113 -132 -198 -5 -40 -4 -45 14 -45 16
0 22 11 32 53 15 69 52 122 101 147 48 24 68 25 99 4 20 -15 25 -15 38 -2 13
14 11 18 -13 37 -32 25 -95 28 -139 4z"/>
<path d="M24401 10314 c0 -11 3 -14 6 -6 3 7 2 16 -1 19 -3 4 -6 -2 -5 -13z"/>
<path d="M21940 10310 c0 -6 7 -10 15 -10 8 0 15 2 15 4 0 2 -7 6 -15 10 -8 3
-15 1 -15 -4z"/>
<path d="M24371 10301 c-6 -11 -7 -22 -2 -25 5 -3 11 4 14 16 8 30 1 35 -12 9z"/>
<path d="M20886 10299 c6 -11 41 -12 47 -1 3 4 -8 7 -24 8 -15 1 -26 -3 -23
-7z"/>
<path d="M21999 10303 c-1 -5 -1 -11 0 -15 0 -5 -5 -8 -13 -8 -7 0 -20 -7 -27
-17 -13 -15 -12 -15 17 0 17 9 31 23 31 31 0 16 -6 22 -8 9z"/>
<path d="M21101 10273 c-1 -27 -18 -31 -24 -5 -4 15 -5 15 -6 0 0 -9 4 -20 10
-24 15 -9 32 11 26 32 -4 16 -5 15 -6 -3z"/>
<path d="M21764 10219 c0 -13 3 -15 13 -7 7 6 13 12 13 13 0 2 -6 5 -13 8 -7
3 -13 -3 -13 -14z"/>
<path d="M21876 10228 c5 -8 1 -9 -12 -4 -14 5 -16 4 -8 -4 12 -12 47 -3 38
11 -3 5 -10 9 -15 9 -6 0 -7 -5 -3 -12z"/>
<path d="M20820 10209 c0 -5 5 -7 10 -4 6 3 10 8 10 11 0 2 -4 4 -10 4 -5 0
-10 -5 -10 -11z"/>
<path d="M20869 10203 c8 -16 8 -23 -2 -26 -8 -4 -8 -6 -1 -6 7 -1 27 6 45 14
32 15 32 16 5 10 -20 -4 -32 -1 -43 12 -13 17 -13 16 -4 -4z"/>
<path d="M21824 10211 c6 -9 -21 -36 -44 -43 -9 -3 -10 -7 -3 -11 6 -4 22 4
37 18 27 25 34 45 15 45 -5 0 -8 -4 -5 -9z"/>
<path d="M21780 10189 c0 -5 5 -7 10 -4 6 3 10 8 10 11 0 2 -4 4 -10 4 -5 0
-10 -5 -10 -11z"/>
<path d="M21013 10175 c0 -7 6 -11 14 -8 7 3 13 6 13 8 0 2 -6 5 -13 8 -8 3
-14 -1 -14 -8z"/>
<path d="M20807 10166 c-10 -8 -14 -16 -10 -19 5 -3 14 3 21 14 14 22 13 23
-11 5z"/>
<path d="M21571 10153 c7 -10 15 -20 16 -22 2 -2 3 3 3 11 0 9 -7 19 -16 22
-15 6 -15 4 -3 -11z"/>
<path d="M20855 10140 c3 -5 8 -10 11 -10 2 0 4 5 4 10 0 6 -5 10 -11 10 -5 0
-7 -4 -4 -10z"/>
<path d="M20888 10143 c7 -3 16 -2 19 1 4 3 -2 6 -13 5 -11 0 -14 -3 -6 -6z"/>
<path d="M10226 10018 c-18 -26 -21 -90 -6 -119 7 -12 21 -19 40 -19 23 0 33
7 46 31 38 75 -35 172 -80 107z"/>
<path d="M11314 9972 c-13 -86 3 -300 30 -404 32 -127 105 -296 164 -382 49
-73 59 -81 80 -68 9 6 1 26 -34 78 -57 84 -101 178 -142 304 -47 146 -56 203
-57 362 0 130 -2 147 -17 151 -14 4 -18 -4 -24 -41z"/>
<path d="M9324 9865 c-8 -20 -21 -7 157 -143 110 -84 149 -108 157 -100 7 7
12 15 12 19 0 9 -284 227 -306 236 -8 3 -17 -2 -20 -12z"/>
<path d="M11090 9774 c0 -28 51 -245 77 -329 33 -107 123 -293 212 -440 87
-143 90 -148 112 -132 14 11 9 24 -48 112 -80 125 -195 356 -228 458 -14 43
-37 128 -51 190 -13 62 -27 122 -29 135 -6 26 -45 31 -45 6z"/>
<path d="M16093 9756 c-302 -125 -619 -431 -813 -788 -22 -40 -40 -76 -40 -79
0 -3 11 -4 25 -1 19 3 38 26 79 96 202 342 505 627 779 732 39 15 74 29 75 30
6 4 -9 44 -16 44 -4 0 -44 -16 -89 -34z"/>
<path d="M10960 9638 c0 -45 82 -265 145 -393 77 -156 197 -349 219 -353 31
-7 28 27 -6 75 -126 175 -258 454 -308 651 -8 31 -16 42 -30 42 -14 0 -20 -7
-20 -22z"/>
<path d="M12740 9573 c0 -31 119 -265 185 -363 102 -153 244 -300 357 -370 44
-28 48 -28 57 -12 8 16 -2 27 -65 72 -167 120 -326 323 -439 563 -43 91 -65
127 -77 127 -11 0 -18 -7 -18 -17z"/>
<path d="M16600 9470 c-27 -27 -25 -36 9 -71 48 -48 121 -35 121 21 0 23 -8
35 -32 50 -42 25 -73 25 -98 0z"/>
<path d="M12641 9331 c-12 -8 -7 -27 29 -112 102 -235 256 -482 385 -617 77
-81 85 -86 100 -71 16 15 13 20 -35 65 -120 112 -288 373 -396 615 -32 71 -61
129 -64 129 -3 0 -11 -4 -19 -9z"/>
<path d="M14377 9138 c-16 -12 -11 -25 49 -143 88 -174 100 -191 134 -204 17
-5 30 -8 30 -6 0 2 -38 75 -85 162 -47 87 -88 168 -91 181 -7 25 -13 27 -37
10z"/>
<path d="M7815 9088 c-66 -35 -165 -144 -212 -234 -71 -136 -88 -213 -87 -394
0 -142 2 -162 28 -240 89 -272 286 -482 587 -624 294 -140 666 -195 922 -137
125 29 270 93 373 167 133 94 245 249 260 358 6 42 5 46 -15 46 -16 0 -21 -6
-21 -28 0 -38 -59 -157 -106 -214 -97 -116 -291 -233 -464 -280 -75 -20 -107
-23 -270 -22 -152 0 -203 4 -290 23 -493 105 -847 386 -946 751 -28 101 -26
320 4 425 44 152 108 246 255 371 34 29 48 55 30 54 -5 -1 -26 -10 -48 -22z"/>
<path d="M13587 8990 c-4 -18 9 -24 121 -59 161 -50 166 -51 170 -26 2 18 -14
25 -136 63 -76 23 -141 42 -144 42 -3 0 -8 -9 -11 -20z"/>
<path d="M12558 8942 c-25 -5 -23 -18 18 -102 106 -222 265 -442 418 -579 45
-39 51 -42 62 -26 11 14 2 26 -63 88 -134 128 -253 295 -362 512 -43 85 -60
110 -73 107z"/>
<path d="M10496 8912 c-2 -4 -13 -52 -25 -107 -28 -137 -51 -370 -51 -515 0
-113 1 -120 20 -120 19 0 20 7 20 123 1 176 22 380 56 525 7 35 14 69 14 77 0
14 -27 28 -34 17z"/>
<path d="M9150 8893 c0 -20 80 -125 141 -184 62 -60 275 -216 284 -207 7 7 57
239 53 244 -3 2 -45 11 -94 20 -105 18 -239 61 -324 104 -33 17 -60 27 -60 23z"/>
<path d="M10696 8823 c-66 -319 -86 -962 -40 -1333 6 -52 8 -55 29 -46 13 5
15 15 10 48 -25 175 -29 816 -6 993 6 44 13 103 17 130 3 28 12 88 19 135 7
47 10 88 8 93 -10 17 -32 5 -37 -20z"/>
<path d="M5866 8508 c-37 -231 -56 -544 -55 -888 1 -305 12 -486 33 -534 9
-21 19 -37 21 -35 1 2 -1 137 -7 299 -14 444 9 942 56 1193 13 66 13 67 -9 67
-20 0 -23 -9 -39 -102z"/>
<path d="M12758 7543 c-15 -17 -2 -33 213 -263 315 -336 285 -308 306 -287 16
16 14 21 -48 85 -36 37 -139 146 -229 242 -251 269 -224 244 -242 223z"/>
<path d="M12526 7191 c-16 -18 -5 -27 271 -221 158 -112 295 -205 304 -207 17
-5 35 26 22 37 -4 4 -116 83 -248 175 -132 92 -261 183 -286 201 -45 33 -47
33 -63 15z"/>
<path d="M16601 6947 c-2 -44 -31 -176 -53 -242 -106 -310 -367 -561 -728
-700 -376 -146 -847 -153 -1233 -18 -240 83 -418 201 -607 399 l-94 100 -66
-32 c-88 -44 -179 -60 -404 -74 -361 -22 -622 -84 -764 -183 -54 -37 -122
-108 -122 -127 0 -15 486 -174 730 -238 683 -180 1764 -250 2850 -186 58 4
121 6 140 5 26 -1 31 2 20 9 -10 7 -11 10 -2 11 15 2 31 6 35 9 1 1 11 3 21 5
17 3 58 14 76 20 3 1 18 7 34 14 16 6 36 9 43 7 9 -4 11 -1 7 5 -4 7 0 9 13 5
22 -7 55 2 48 13 -2 4 1 8 8 9 7 1 35 4 62 8 28 3 65 6 83 7 17 1 32 5 32 10
0 4 -6 7 -14 5 -8 -2 -14 2 -13 7 1 6 7 10 14 10 7 0 18 6 25 13 6 6 22 12 34
12 19 0 23 8 33 63 6 35 11 98 11 140 0 42 4 77 8 77 5 0 46 -13 93 -28 46
-16 130 -41 187 -57 59 -16 101 -33 98 -39 -2 -6 -9 -10 -16 -8 -10 2 -11 0
-2 -11 7 -8 10 -16 7 -19 -10 -10 42 -26 56 -17 11 7 11 9 1 9 -7 0 -10 5 -7
10 5 8 11 8 20 0 10 -8 13 -6 11 7 -2 30 -18 32 -42 4 l-24 -26 4 25 c3 14 5
27 5 30 1 3 5 -1 10 -9 7 -11 10 -9 16 8 5 17 10 20 20 11 8 -7 16 -7 19 -2 9
16 -15 28 -89 46 -98 23 -357 106 -372 118 -7 6 -13 24 -13 40 0 47 -27 158
-100 408 -107 366 -108 368 -109 337z m69 -1156 c0 -14 -29 -21 -36 -9 -4 6
-3 8 4 4 6 -3 13 -2 17 4 8 12 15 13 15 1z"/>
<path d="M5845 6698 c-3 -7 12 -67 33 -133 33 -103 41 -120 58 -117 10 2 20 5
22 7 2 2 -14 59 -35 126 -28 89 -44 125 -56 127 -9 2 -19 -2 -22 -10z"/>
<path d="M12367 6629 c-4 -13 -5 -24 -4 -25 7 -6 623 -102 629 -98 4 3 8 13 8
23 0 16 -35 24 -292 65 -161 26 -303 50 -314 53 -16 3 -23 -1 -27 -18z"/>
<path d="M18536 6578 c5 -8 2 -9 -10 -5 -9 4 -15 3 -11 -2 6 -11 45 -10 45 0
0 4 -7 10 -16 13 -10 4 -13 2 -8 -6z"/>
<path d="M18464 6565 c-3 -8 -21 -19 -40 -25 -19 -6 -34 -16 -34 -21 0 -6 -6
-7 -12 -3 -7 4 -4 -2 6 -14 19 -22 32 -30 22 -14 -7 11 52 55 63 48 5 -3 8 5
7 19 -1 29 -4 31 -12 10z m-35 -38 c-2 -1 -13 -9 -24 -17 -19 -14 -19 -14 -6
3 7 9 18 17 24 17 6 0 8 -1 6 -3z"/>
<path d="M18437 6506 c-16 -12 -16 -14 -1 -20 27 -11 42 -7 40 11 -4 22 -17
25 -39 9z m28 -6 c-3 -5 -11 -10 -16 -10 -6 0 -7 5 -4 10 3 6 11 10 16 10 6 0
7 -4 4 -10z"/>
<path d="M18350 6500 c0 -5 5 -10 11 -10 5 0 7 5 4 10 -3 6 -8 10 -11 10 -2 0
-4 -4 -4 -10z"/>
<path d="M18785 6494 c-18 -14 -18 -14 2 -14 23 0 39 15 26 23 -5 3 -17 -1
-28 -9z"/>
<path d="M18291 6471 c-11 -11 -23 -16 -27 -13 -4 4 -4 1 0 -6 4 -7 0 -20 -11
-30 -10 -9 -14 -14 -9 -9 6 4 17 7 26 7 13 0 13 -1 0 -10 -18 -11 -4 -12 24
-1 11 4 20 17 21 29 1 11 -2 19 -6 16 -4 -2 -10 0 -14 6 -3 5 1 10 9 10 9 0
16 5 16 10 0 15 -8 12 -29 -9z m13 -37 c4 -10 1 -14 -6 -12 -15 5 -23 28 -10
28 5 0 13 -7 16 -16z"/>
<path d="M18840 6466 c0 -2 8 -10 18 -17 15 -13 16 -12 3 4 -13 16 -21 21 -21
13z"/>
<path d="M5715 6436 c-18 -13 -14 -23 67 -187 114 -229 226 -403 337 -522 56
-60 77 -73 97 -57 12 10 1 26 -64 95 -120 126 -255 339 -357 561 -30 64 -55
118 -58 120 -2 2 -12 -2 -22 -10z"/>
<path d="M18210 6430 c-9 -6 -10 -10 -3 -10 6 0 15 5 18 10 8 12 4 12 -15 0z"/>
<path d="M18885 6420 c-3 -5 0 -12 6 -16 8 -5 9 -3 4 6 -6 10 -4 12 8 7 9 -3
18 -3 21 1 3 4 -4 8 -14 9 -11 1 -22 -2 -25 -7z"/>
<path d="M18145 6390 c6 -10 4 -12 -7 -7 -9 3 -24 0 -34 -8 -16 -11 -15 -12
10 -10 35 4 53 20 35 30 -8 6 -10 4 -4 -5z"/>
<path d="M18135 6349 c-4 -6 -14 -8 -23 -4 -9 3 -13 2 -8 -2 13 -13 53 -10 53
4 0 16 -13 17 -22 2z"/>
<path d="M18073 6337 c0 -8 6 -14 14 -14 9 0 10 4 2 14 -6 7 -12 13 -14 13 -1
0 -2 -6 -2 -13z"/>
<path d="M18009 6329 c-6 -4 1 -6 15 -6 15 0 28 2 30 6 3 4 -4 7 -15 7 -11 0
-25 -3 -30 -7z"/>
<path d="M17984 6296 c-3 -7 -4 -19 -2 -26 2 -7 -3 -15 -11 -18 -8 -2 -11 0
-8 5 4 6 0 18 -7 28 -10 14 -15 15 -21 5 -5 -9 -4 -11 3 -6 7 4 12 1 12 -7 0
-24 -13 -28 -34 -10 -20 17 -20 17 -4 -1 20 -22 64 -30 75 -13 8 13 13 57 6
57 -2 0 -6 -6 -9 -14z"/>
<path d="M19044 6264 c1 -8 6 -17 11 -21 4 -4 5 -2 1 5 -9 15 -5 15 31 1 27
-10 27 -9 11 7 -21 21 -57 26 -54 8z"/>
<path d="M17871 6261 c-11 -7 -9 -10 8 -16 13 -4 25 -4 28 -1 4 3 -1 6 -11 6
-9 0 -14 5 -11 10 8 12 4 12 -14 1z"/>
<path d="M17817 6229 c7 -7 15 -10 18 -7 3 3 -2 9 -12 12 -14 6 -15 5 -6 -5z"/>
<path d="M17743 6196 c0 -7 7 -12 16 -11 9 2 21 4 26 4 13 2 -16 21 -31 21 -6
0 -11 -6 -11 -14z"/>
<path d="M17822 6201 c-11 -7 -11 -9 0 -14 9 -3 15 1 15 9 0 8 -1 14 -1 14 -1
0 -7 -4 -14 -9z"/>
<path d="M19121 6194 c0 -11 3 -14 6 -6 3 7 2 16 -1 19 -3 4 -6 -2 -5 -13z"/>
<path d="M5606 6187 c-17 -12 -14 -21 43 -132 91 -179 243 -371 393 -497 43
-36 49 -38 63 -24 15 14 13 19 -22 48 -179 156 -337 362 -424 553 -16 36 -31
65 -32 65 -2 0 -11 -6 -21 -13z"/>
<path d="M17700 6180 c0 -6 7 -10 15 -10 8 0 15 2 15 4 0 2 -7 6 -15 10 -8 3
-15 1 -15 -4z"/>
<path d="M19138 6178 c-7 -17 15 -19 29 -3 4 4 3 5 -4 2 -6 -4 -13 -2 -15 5
-3 8 -6 6 -10 -4z"/>
<path d="M17805 6170 c-3 -5 -1 -10 4 -10 6 0 11 5 11 10 0 6 -2 10 -4 10 -3
0 -8 -4 -11 -10z"/>
<path d="M17660 6152 c6 -13 14 -21 18 -18 3 4 -2 14 -12 24 -18 16 -18 16 -6
-6z"/>
<path d="M17616 6145 c-10 -8 -24 -11 -30 -8 -6 4 -2 -3 8 -15 11 -12 26 -22
35 -22 11 1 8 5 -8 14 l-24 14 21 6 c12 4 22 12 22 17 0 12 -1 11 -24 -6z"/>
<path d="M17535 6111 c-3 -6 -10 -9 -15 -6 -5 3 -11 1 -14 -4 -4 -5 -3 -12 1
-14 10 -7 48 21 41 29 -3 3 -9 0 -13 -5z"/>
<path d="M17650 6116 c0 -2 7 -7 16 -10 8 -3 12 -2 9 4 -6 10 -25 14 -25 6z"/>
<path d="M19206 6068 c3 -4 13 -8 22 -8 14 0 15 -2 2 -9 -8 -6 -17 -8 -20 -6
-13 8 -6 -21 8 -34 12 -12 13 -11 7 9 -6 19 -4 21 17 15 15 -4 19 -3 10 3 -8
5 -13 12 -13 16 3 18 -1 22 -18 22 -11 0 -17 -4 -15 -8z"/>
<path d="M17414 6054 c-18 -14 -18 -15 4 -4 12 6 22 13 22 15 0 8 -5 6 -26
-11z"/>
<path d="M17314 6024 c-10 -8 -13 -13 -7 -9 7 3 22 1 34 -6 15 -8 19 -8 15 0
-4 6 -1 11 6 11 9 0 9 3 -2 10 -20 13 -23 13 -46 -6z"/>
<path d="M17420 6029 c0 -5 5 -7 10 -4 6 3 10 8 10 11 0 2 -4 4 -10 4 -5 0
-10 -5 -10 -11z"/>
<path d="M5462 6021 c-34 -21 113 -226 267 -372 144 -137 219 -193 238 -178 7
7 12 15 11 20 -2 4 -34 33 -73 64 -160 130 -316 300 -384 419 -34 58 -37 61
-59 47z"/>
<path d="M17095 5940 c-8 -13 -1 -24 14 -19 6 3 7 10 2 18 -6 10 -10 10 -16 1z"/>
<path d="M19297 5941 c2 -2 -2 -10 -9 -18 -6 -8 -7 -13 -2 -12 35 6 48 -22 18
-39 -12 -7 -13 -11 -5 -16 17 -11 40 11 34 32 -2 9 -12 26 -21 37 -9 11 -16
18 -15 16z"/>
<path d="M17140 5930 c8 -5 20 -10 25 -10 6 0 3 5 -5 10 -8 5 -19 10 -25 10
-5 0 -3 -5 5 -10z"/>
<path d="M17024 5912 c4 -7 5 -12 2 -12 -2 0 -12 -3 -22 -7 -12 -4 -15 -3 -10
5 5 8 2 10 -9 6 -12 -5 -9 -11 17 -30 17 -13 34 -24 37 -24 3 0 -2 7 -11 14
-22 16 -23 30 -3 22 18 -6 21 19 3 30 -7 4 -8 3 -4 -4z"/>
<path d="M16940 5880 c-9 -6 -10 -10 -3 -10 6 0 15 5 18 10 8 12 4 12 -15 0z"/>
<path d="M16883 5859 c14 -8 22 -8 30 0 8 8 3 11 -18 11 -26 -1 -28 -2 -12
-11z"/>
<path d="M16845 5850 c3 -5 8 -10 11 -10 2 0 4 5 4 10 0 6 -5 10 -11 10 -5 0
-7 -4 -4 -10z"/>
<path d="M16980 5850 c-9 -6 -10 -10 -3 -10 6 0 15 5 18 10 8 12 4 12 -15 0z"/>
<path d="M16752 5801 c-10 -6 -6 -11 17 -19 18 -7 29 -7 26 -2 -4 6 -14 10
-23 10 -15 0 -15 2 -2 10 8 5 11 10 5 10 -5 0 -16 -4 -23 -9z"/>
<path d="M19370 5740 c-13 -8 -12 -10 3 -10 9 0 17 5 17 10 0 12 -1 12 -20 0z"/>
<path d="M16535 5710 c-16 -7 -17 -9 -3 -9 9 -1 20 4 23 9 7 11 7 11 -20 0z"/>
<path d="M19367 5700 c-3 -13 -2 -31 4 -39 8 -12 8 -10 3 8 -4 16 -3 21 5 17
6 -4 11 -19 11 -34 0 -21 2 -24 10 -12 8 12 10 12 10 1 0 -8 3 -11 6 -8 4 4
-2 19 -12 34 -11 15 -22 35 -25 42 -4 11 -7 8 -12 -9z"/>
<path d="M16430 5690 c8 -5 24 -10 34 -10 26 0 18 6 -19 14 -22 5 -26 4 -15
-4z"/>
<path d="M16538 5683 c7 -3 16 -2 19 1 4 3 -2 6 -13 5 -11 0 -14 -3 -6 -6z"/>
<path d="M16296 5644 c-24 -17 -70 -19 -60 -3 4 8 0 7 -15 -1 -12 -6 -32 -8
-44 -5 -16 5 -18 4 -8 -3 7 -5 31 -10 53 -10 22 -1 42 -3 45 -6 3 -3 12 1 19
9 8 7 19 15 26 18 7 2 11 7 8 10 -3 3 -14 -1 -24 -9z"/>
<path d="M21802 5593 c-176 -51 -193 -58 -190 -77 2 -12 8 -21 13 -20 13 1
389 106 393 110 6 4 -9 44 -16 43 -4 0 -94 -26 -200 -56z"/>
<path d="M16125 5620 c3 -5 8 -10 11 -10 2 0 4 5 4 10 0 6 -5 10 -11 10 -5 0
-7 -4 -4 -10z"/>
<path d="M16305 5621 c-3 -5 -1 -12 5 -16 5 -3 10 1 10 9 0 18 -6 21 -15 7z"/>
<path d="M15955 5574 l-30 -15 28 6 c18 4 26 2 22 -4 -4 -7 1 -8 11 -4 11 4
13 8 6 11 -7 2 -10 8 -6 13 6 11 6 11 -31 -7z"/>
<path d="M15877 5546 c3 -4 -5 -5 -18 -2 -20 6 -21 5 -7 -4 11 -7 25 -7 42 0
32 12 33 18 2 16 -13 0 -22 -5 -19 -10z"/>
<path d="M15975 5540 c-16 -7 -17 -9 -3 -9 9 -1 20 4 23 9 7 11 7 11 -20 0z"/>
<path d="M15920 5530 c0 -5 5 -10 11 -10 5 0 7 5 4 10 -3 6 -8 10 -11 10 -2 0
-4 -4 -4 -10z"/>
<path d="M19443 5515 c-3 -9 -3 -18 -1 -21 3 -3 8 4 11 16 6 23 -1 27 -10 5z"/>
<path d="M15700 5500 c20 -13 33 -13 25 0 -3 6 -14 10 -23 10 -15 0 -15 -2 -2
-10z"/>
<path d="M15628 5473 c6 -2 18 -2 25 0 6 3 1 5 -13 5 -14 0 -19 -2 -12 -5z"/>
<path d="M15685 5461 c-6 -5 -17 -11 -25 -14 -8 -2 -2 -3 15 -1 32 5 60 24 34
24 -8 0 -19 -4 -24 -9z"/>
<path d="M15730 5450 c-8 -5 -10 -10 -5 -10 6 0 17 5 25 10 8 5 11 10 5 10 -5
0 -17 -5 -25 -10z"/>
<path d="M15503 5443 c9 -2 23 -2 30 0 6 3 -1 5 -18 5 -16 0 -22 -2 -12 -5z"/>
<path d="M15398 5423 c7 -3 16 -2 19 1 4 3 -2 6 -13 5 -11 0 -14 -3 -6 -6z"/>
<path d="M15431 5404 c0 -11 3 -14 6 -6 3 7 2 16 -1 19 -3 4 -6 -2 -5 -13z"/>
<path d="M19456 5394 c-4 -9 -4 -19 -1 -22 2 -3 7 3 11 12 4 9 4 19 1 22 -2 3
-7 -3 -11 -12z"/>
<path d="M15318 5393 c7 -3 16 -2 19 1 4 3 -2 6 -13 5 -11 0 -14 -3 -6 -6z"/>
<path d="M15180 5380 c-8 -5 -1 -10 19 -15 40 -9 47 -3 16 11 -13 6 -29 8 -35
4z"/>
<path d="M15270 5386 c0 -2 8 -10 18 -17 15 -13 16 -12 3 4 -13 16 -21 21 -21
13z"/>
<path d="M15368 5383 c7 -3 16 -2 19 1 4 3 -2 6 -13 5 -11 0 -14 -3 -6 -6z"/>
<path d="M15017 5339 c7 -7 15 -10 18 -7 3 3 -2 9 -12 12 -14 6 -15 5 -6 -5z"/>
<path d="M6904 5326 c-17 -13 -15 -18 30 -94 71 -117 139 -205 240 -310 108
-112 206 -188 311 -243 79 -40 79 -40 87 -18 5 12 7 23 6 24 -2 1 -32 17 -67
34 -187 94 -379 286 -534 533 -50 79 -56 86 -73 74z"/>
<path d="M14940 5310 c0 -5 5 -10 10 -10 6 0 10 5 10 10 0 6 -4 10 -10 10 -5
0 -10 -4 -10 -10z"/>
<path d="M14988 5313 c6 -2 18 -2 25 0 6 3 1 5 -13 5 -14 0 -19 -2 -12 -5z"/>
<path d="M14850 5300 c8 -5 20 -10 25 -10 6 0 3 5 -5 10 -8 5 -19 10 -25 10
-5 0 -3 -5 5 -10z"/>
<path d="M15135 5270 c-4 -6 -12 -7 -18 -4 -8 5 -8 3 1 -7 6 -7 12 -17 12 -21
0 -4 -6 -8 -12 -8 -7 0 -25 -7 -40 -14 -19 -10 -27 -11 -25 -3 1 7 6 15 10 18
4 3 2 11 -6 17 -12 10 -14 8 -12 -11 4 -31 -4 -43 -35 -51 -19 -6 -21 -5 -10
3 13 9 13 11 -2 11 -10 0 -18 -7 -18 -15 0 -12 -9 -15 -35 -12 -19 3 -32 0
-29 -5 3 -5 13 -7 21 -4 8 4 11 1 8 -5 -4 -6 -13 -8 -20 -5 -8 3 -19 -2 -25
-9 -7 -8 -15 -14 -18 -13 -4 1 -17 -3 -28 -10 -12 -6 -23 -10 -25 -9 -2 1 1
-2 7 -8 6 -5 9 -16 7 -22 -3 -7 2 -13 11 -13 8 0 18 -5 22 -11 5 -9 -1 -10
-20 -5 -14 3 -26 3 -26 -2 0 -12 42 -12 58 0 10 9 11 13 0 19 -9 6 -7 9 8 9
11 0 25 5 32 12 9 9 15 9 25 -1 10 -10 9 -11 -3 -8 -8 2 -12 2 -8 0 5 -3 4
-13 -2 -22 -7 -13 -5 -18 6 -18 8 0 13 6 10 13 -3 8 -1 16 4 19 5 3 7 12 4 19
-3 7 2 16 10 19 11 4 13 1 10 -11 -4 -11 1 -8 14 7 13 16 21 20 26 12 4 -6 3
-11 -2 -11 -6 0 -12 -7 -16 -15 -4 -12 -2 -13 14 -3 11 7 22 19 25 26 2 7 0
10 -5 7 -6 -3 -10 -1 -10 4 0 6 6 11 13 12 6 0 39 13 72 29 55 26 61 27 73 12
12 -16 13 -15 10 3 -2 15 2 20 19 19 13 -1 20 2 18 6 -3 4 2 11 11 14 10 4 13
2 8 -6 -4 -6 -3 -8 3 -5 6 4 13 20 15 35 4 28 3 29 -38 28 -24 0 -41 -3 -38
-7 2 -4 -9 -12 -26 -17 -16 -6 -32 -7 -35 -2 -7 11 12 23 24 15 5 -3 12 -1 16
5 3 5 -3 10 -14 10 -11 0 -23 -5 -26 -10z"/>
<path d="M19370 5276 c0 -2 9 -6 20 -9 11 -3 18 -1 14 4 -5 9 -34 13 -34 5z"/>
<path d="M14682 5261 c-11 -7 -10 -9 3 -14 9 -4 14 -3 10 2 -3 5 1 12 7 14 7
3 9 6 3 6 -5 0 -16 -3 -23 -8z"/>
<path d="M15086 5251 c-4 -7 -5 -15 -2 -18 9 -9 19 4 14 18 -4 11 -6 11 -12 0z"/>
<path d="M14621 5241 c-11 -7 -11 -9 0 -14 11 -4 11 -6 1 -6 -10 -1 -10 -4 2
-16 18 -18 32 -20 19 -2 -6 6 -9 20 -8 30 4 20 4 19 -14 8z"/>
<path d="M19415 5240 c19 -8 19 -9 -2 -9 -30 -1 -53 -11 -53 -23 0 -6 6 -5 15
2 8 7 21 10 29 7 16 -6 40 16 29 26 -3 4 -13 7 -22 6 -12 0 -11 -3 4 -9z"/>
<path d="M14674 5226 c11 -9 24 -16 30 -16 12 0 7 5 -24 19 -24 11 -24 11 -6
-3z"/>
<path d="M14592 5200 c0 -14 2 -19 5 -12 2 6 2 18 0 25 -3 6 -5 1 -5 -13z"/>
<path d="M14805 5190 c-3 -5 -1 -10 4 -10 6 0 11 5 11 10 0 6 -2 10 -4 10 -3
0 -8 -4 -11 -10z"/>
<path d="M19210 5196 c0 -2 9 -6 20 -9 11 -3 18 -1 14 4 -5 9 -34 13 -34 5z"/>
<path d="M14824 5169 c-19 -22 -19 -22 4 -10 12 6 22 16 22 21 0 15 -5 12 -26
-11z"/>
<path d="M14610 5169 c0 -4 20 -14 45 -23 28 -9 43 -11 39 -4 -5 8 -1 9 10 5
10 -4 15 -3 11 4 -4 5 -15 7 -26 4 -10 -4 -19 -2 -19 3 0 6 -10 8 -22 5 -18
-4 -20 -3 -8 6 12 8 11 10 -8 8 -12 0 -22 -4 -22 -8z"/>
<path d="M15123 5161 c-17 -11 -34 -17 -38 -13 -3 3 -3 -1 0 -10 6 -15 8 -15
26 3 21 21 44 25 54 9 4 -6 -1 -7 -12 -4 -14 5 -15 4 -4 -4 15 -11 41 -5 41 9
0 5 -5 9 -11 9 -5 0 -7 5 -4 10 10 16 -18 11 -52 -9z"/>
<path d="M14849 5143 c-13 -16 -12 -17 3 -5 9 8 23 10 29 6 8 -4 9 -3 5 4 -10
17 -21 15 -37 -5z"/>
<path d="M15127 5129 c7 -7 15 -10 18 -7 3 3 -2 9 -12 12 -14 6 -15 5 -6 -5z"/>
<path d="M19163 5106 c0 -8 6 -12 14 -9 7 3 10 9 7 14 -8 14 -21 11 -21 -5z"/>
<path d="M19091 5096 c-11 -5 -21 -13 -21 -18 0 -4 -5 -8 -11 -8 -6 0 -8 7 -4
18 4 12 3 14 -5 6 -6 -6 -8 -18 -4 -28 6 -16 9 -15 30 5 13 12 24 18 24 12 0
-5 7 -10 15 -10 8 0 12 4 9 8 -2 4 4 12 13 18 16 9 16 10 -3 8 -12 0 -31 -5
-43 -11z"/>
<path d="M8697 5094 c-18 -18 -1 -36 77 -77 185 -101 544 -261 981 -439 401
-164 365 -151 372 -132 3 8 2 19 -3 24 -5 5 -112 50 -239 100 -375 150 -685
285 -935 408 -129 64 -238 117 -241 119 -3 2 -8 0 -12 -3z"/>
<path d="M14799 5068 c12 -16 11 -18 -10 -19 -19 -1 -20 -2 -5 -6 27 -7 40 11
19 28 -16 13 -17 12 -4 -3z"/>
<path d="M14911 5057 c-13 -21 -12 -21 5 -5 10 10 16 20 13 22 -3 3 -11 -5
-18 -17z"/>
<path d="M6837 5059 c-21 -12 -22 -10 100 -196 138 -212 294 -390 430 -493 62
-47 68 -50 80 -34 18 25 17 26 -29 54 -60 37 -223 201 -308 310 -80 103 -226
322 -235 351 -7 22 -13 23 -38 8z"/>
<path d="M14748 5063 c7 -3 16 -2 19 1 4 3 -2 6 -13 5 -11 0 -14 -3 -6 -6z"/>
<path d="M15002 5063 c-13 -5 -7 -23 9 -23 6 0 7 5 3 12 -5 8 -2 9 10 5 10 -4
15 -3 11 3 -7 11 -13 11 -33 3z"/>
<path d="M18897 5020 c-9 -11 -13 -20 -7 -20 5 0 14 9 20 20 6 11 9 20 8 20
-2 0 -11 -9 -21 -20z"/>
<path d="M13888 5008 c-16 -5 -28 -14 -28 -19 0 -6 6 -7 13 -3 6 4 2 -3 -10
-15 -13 -12 -23 -28 -23 -36 0 -10 -10 -15 -27 -15 -44 0 -21 -8 36 -13 29 -3
57 -10 61 -17 4 -6 10 -11 14 -11 3 1 16 1 29 1 16 0 18 -3 9 -9 -11 -7 -10
-10 3 -15 26 -9 42 -7 25 4 -9 6 -10 10 -3 10 6 0 14 -4 18 -10 3 -5 13 -6 22
-3 12 5 15 2 11 -8 -4 -11 4 -14 35 -14 39 0 68 -24 30 -26 -11 0 -13 -3 -5
-6 7 -3 22 3 33 13 15 14 22 15 32 5 9 -10 8 -11 -5 -6 -10 4 -18 3 -18 -3 0
-11 18 -11 37 1 7 4 21 4 30 -1 10 -5 33 -9 52 -11 19 -1 39 -5 45 -9 6 -4 18
-7 26 -7 25 -1 44 -16 30 -25 -7 -4 -1 -7 16 -7 l27 0 -24 18 c-13 10 -19 19
-12 19 6 0 15 -5 18 -10 4 -6 11 -8 16 -5 5 4 9 0 9 -7 0 -9 3 -9 10 2 9 13
11 13 20 0 8 -12 10 -12 10 -1 0 10 9 12 33 7 17 -3 60 -7 94 -8 34 -1 60 -5
57 -10 -3 -4 -1 -8 5 -8 5 0 11 5 13 12 3 7 24 12 49 13 24 0 54 6 67 13 12 7
22 10 22 6 0 -9 -52 -49 -64 -49 -5 0 -11 -6 -13 -12 -6 -16 13 -17 22 -3 4 6
15 8 25 5 20 -6 38 17 35 45 -1 8 -3 25 -3 38 -1 13 -6 20 -12 17 -5 -3 -10 3
-10 15 0 12 4 19 9 15 5 -3 12 -1 16 5 3 6 -4 9 -18 8 -17 -2 -23 -7 -20 -19
3 -9 -1 -20 -8 -25 -9 -5 -10 -2 -5 11 6 18 6 18 -15 -1 -12 -10 -19 -13 -15
-6 4 6 2 12 -3 12 -6 0 -11 5 -11 11 0 8 4 8 14 0 10 -9 15 -8 19 2 3 9 -2 13
-16 12 -16 -1 -22 -8 -21 -23 1 -25 -11 -29 -23 -8 -5 9 -15 11 -28 5 -18 -7
-18 -8 4 -8 30 -1 20 -13 -14 -17 -16 -2 -23 1 -19 8 5 7 2 8 -7 2 -23 -15
-138 -13 -150 3 -6 7 -19 13 -28 13 -12 0 -13 -2 -3 -9 8 -5 0 -7 -22 -7 -28
1 -36 5 -36 20 0 14 3 16 13 8 12 -10 64 -5 71 7 6 10 -102 7 -111 -3 -4 -5
-3 -6 5 -2 6 4 12 2 12 -4 0 -7 -7 -9 -16 -6 -9 3 -18 6 -20 6 -3 0 -2 5 2 12
4 7 3 8 -5 4 -9 -6 -9 -11 -1 -21 9 -11 3 -11 -30 -3 -29 8 -37 13 -28 19 10
7 9 9 -4 9 -10 0 -18 -5 -18 -11 0 -8 -4 -8 -13 -1 -7 6 -23 9 -35 5 -17 -4
-24 0 -31 18 -8 19 -10 20 -10 6 -1 -12 -7 -17 -18 -15 -23 4 -29 28 -6 29 14
0 12 3 -7 11 -14 5 -33 14 -42 19 -23 12 -45 11 -52 0 -4 -5 3 -7 14 -4 11 3
20 0 20 -6 0 -6 3 -10 8 -10 20 3 32 -2 32 -16 0 -17 -16 -20 -25 -5 -3 5 -13
6 -22 3 -12 -5 -14 -3 -8 7 6 10 4 12 -8 7 -8 -3 -20 0 -25 6 -10 12 -12 18
-12 38 0 5 -5 7 -11 3 -6 -3 -7 -9 -3 -13 17 -12 16 -34 -2 -27 -9 3 -27 9
-40 12 -21 5 -29 21 -25 47 1 5 -3 6 -8 2 -6 -3 -7 -13 -4 -23 5 -14 3 -15 -7
-5 -8 7 -15 19 -16 27 -2 17 49 33 54 17 2 -6 8 -11 14 -11 6 0 6 6 -2 15 -14
17 -24 18 -62 3z m896 -253 c-7 -16 -24 -21 -24 -6 0 8 7 13 27 20 1 1 0 -6
-3 -14z"/>
<path d="M13946 4967 c-18 -13 -18 -14 -1 -21 10 -3 20 -4 23 -1 3 3 0 5 -8 5
-10 0 -10 3 0 15 15 19 10 19 -14 2z"/>
<path d="M13729 4902 c9 -7 10 -11 2 -15 -7 -4 -8 -5 0 -3 15 2 13 20 -3 24
-10 3 -10 2 1 -6z"/>
<path d="M13768 4893 c6 -2 18 -2 25 0 6 3 1 5 -13 5 -14 0 -19 -2 -12 -5z"/>
<path d="M13857 4893 c-3 -5 6 -9 20 -10 19 -1 22 1 12 8 -17 11 -26 11 -32 2z"/>
<path d="M7780 4857 c0 -22 8 -24 220 -58 211 -34 220 -34 226 -16 3 10 4 20
2 23 -4 4 -418 74 -438 74 -6 0 -10 -10 -10 -23z"/>
<path d="M13741 4871 c-8 -5 -9 -11 -3 -15 5 -3 12 1 16 9 6 17 6 18 -13 6z"/>
<path d="M14630 4870 c-9 -6 -10 -10 -3 -10 6 0 15 5 18 10 8 12 4 12 -15 0z"/>
<path d="M18538 4873 c6 -2 18 -2 25 0 6 3 1 5 -13 5 -14 0 -19 -2 -12 -5z"/>
<path d="M14550 4858 c0 -9 -8 -19 -17 -22 -10 -2 0 -2 22 1 22 3 44 9 49 14
5 4 -1 5 -14 2 -13 -4 -25 0 -31 8 -7 11 -9 11 -9 -3z"/>
<path d="M18428 4863 c7 -3 16 -2 19 1 4 3 -2 6 -13 5 -11 0 -14 -3 -6 -6z"/>
<path d="M18470 4850 c-13 -11 -18 -20 -12 -20 10 0 42 27 42 36 0 8 -7 4 -30
-16z"/>
<path d="M14487 4849 c7 -7 15 -10 18 -7 3 3 -2 9 -12 12 -14 6 -15 5 -6 -5z"/>
<path d="M13780 4839 c0 -6 -7 -8 -17 -4 -15 5 -14 3 2 -13 17 -15 22 -16 33
-5 7 7 10 17 7 23 -8 13 -25 13 -25 -1z"/>
<path d="M13948 4820 c42 -26 56 -26 17 0 -16 11 -34 20 -40 20 -5 0 5 -9 23
-20z"/>
<path d="M13985 4830 c-3 -5 1 -10 9 -10 9 0 16 5 16 10 0 6 -4 10 -9 10 -6 0
-13 -4 -16 -10z"/>
<path d="M13810 4785 c0 -2 26 -22 58 -45 31 -24 58 -44 60 -46 2 -1 -3 -11
-10 -23 -14 -23 -53 -28 -61 -8 -4 9 -6 8 -6 -2 -2 -23 68 -81 97 -81 l26 0
-24 17 c-13 9 -31 17 -39 18 -9 0 -16 5 -16 10 0 6 6 9 12 9 7 -1 11 2 8 6 -3
5 -1 11 5 15 5 3 10 -2 10 -12 0 -10 4 -14 8 -8 10 14 35 18 26 4 -4 -8 0 -9
16 -4 17 5 21 4 15 -6 -6 -9 -3 -11 9 -6 11 4 15 3 10 -4 -4 -8 1 -9 17 -5 21
6 22 6 7 -7 -14 -11 -10 -13 38 -14 30 0 61 -6 69 -13 8 -7 15 -9 15 -5 0 4 6
3 13 -2 6 -5 23 -10 36 -11 29 -1 30 -3 33 -34 2 -18 7 -24 17 -20 9 3 12 1 7
-6 -9 -14 3 -15 23 -3 10 6 18 5 25 -4 9 -12 13 -11 26 3 13 14 12 15 -3 9 -9
-3 -19 -2 -22 2 -3 5 -13 7 -23 5 -23 -6 -46 11 -37 26 6 10 10 9 17 -4 5 -9
14 -16 21 -16 7 0 6 4 -3 10 -20 13 -4 13 20 0 10 -6 38 -12 62 -15 52 -7 76
-25 26 -20 -20 1 -41 -1 -48 -5 -7 -4 9 -7 36 -6 27 1 55 5 61 9 6 4 14 4 17
-1 3 -5 28 -9 57 -10 29 0 55 -5 58 -9 3 -5 21 -9 40 -10 18 0 37 -7 42 -14 7
-12 9 -11 10 1 0 10 3 8 9 -5 7 -15 9 -16 9 -4 1 12 8 15 29 12 15 -2 43 -4
62 -5 19 0 41 -5 48 -11 7 -5 15 -7 19 -3 3 3 1 6 -7 6 -10 0 -10 3 0 15 6 8
8 20 4 27 -5 9 -4 10 4 3 5 -5 12 -19 15 -30 l5 -20 1 20 c1 34 -14 46 -60 47
-32 0 -39 3 -24 9 16 6 17 8 3 8 -9 1 -20 -3 -23 -9 -3 -5 -11 -10 -16 -10 -6
0 -8 4 -4 9 3 5 1 12 -5 16 -5 3 -10 1 -10 -4 0 -6 -5 -11 -11 -11 -5 0 -7 6
-3 13 6 9 4 9 -7 1 -19 -14 -64 -11 -86 7 -12 10 -15 10 -9 1 10 -16 -38 -9
-60 9 -11 9 -14 9 -14 0 0 -7 -5 -9 -10 -6 -6 4 -8 10 -5 15 3 4 -12 7 -33 5
-42 -2 -146 17 -120 22 9 2 19 10 22 18 4 11 0 11 -28 0 -26 -11 -41 -12 -70
-3 -20 6 -36 15 -36 20 0 4 -5 8 -11 8 -5 0 -7 -5 -3 -12 4 -6 -10 -1 -31 12
-21 13 -35 19 -31 12 7 -12 -19 -6 -39 9 -5 4 -14 8 -20 9 -5 1 -9 8 -7 17 2
10 -1 12 -10 7 -21 -14 -50 -15 -42 -3 4 8 -1 9 -17 4 -18 -5 -20 -4 -9 4 8 6
24 9 35 7 11 -2 14 -1 8 1 -28 10 -11 18 32 16 25 -1 43 2 41 6 -7 11 -86 5
-99 -8 -16 -16 -58 -13 -72 5 -9 13 -16 14 -32 6 -17 -9 -28 -5 -71 27 -28 21
-49 41 -46 43 2 3 -3 5 -11 5 -8 0 -15 -1 -15 -2z"/>
<path d="M14292 4774 c10 -10 20 -16 22 -13 3 3 -5 11 -17 18 -21 13 -21 12
-5 -5z"/>
<path d="M18228 4783 c7 -3 16 -2 19 1 4 3 -2 6 -13 5 -11 0 -14 -3 -6 -6z"/>
<path d="M18285 4780 c-3 -6 1 -7 9 -4 18 7 21 14 7 14 -6 0 -13 -4 -16 -10z"/>
<path d="M13890 4755 c7 -8 17 -15 22 -15 5 0 3 7 -6 15 -8 8 -18 15 -22 15
-3 0 -1 -7 6 -15z"/>
<path d="M14264 4751 c21 -23 26 -26 26 -11 0 5 -10 15 -22 21 -23 12 -23 12
-4 -10z"/>
<path d="M14450 4749 c-21 -12 -26 -17 -12 -13 13 3 29 0 37 -6 8 -6 24 -10
37 -7 20 4 19 4 -6 6 -23 1 -27 5 -23 21 3 11 4 20 4 19 -1 -1 -18 -10 -37
-20z"/>
<path d="M14534 4749 c-8 -14 17 -21 31 -9 8 7 22 10 30 6 8 -3 15 -1 15 4 0
11 -69 10 -76 -1z"/>
<path d="M14323 4735 c0 -9 4 -14 9 -13 5 2 10 8 10 13 0 5 -5 11 -10 13 -5 1
-9 -4 -9 -13z"/>
<path d="M14245 4730 c3 -5 8 -10 11 -10 2 0 4 5 4 10 0 6 -5 10 -11 10 -5 0
-7 -4 -4 -10z"/>
<path d="M17991 4704 c0 -11 3 -14 6 -6 3 7 2 16 -1 19 -3 4 -6 -2 -5 -13z"/>
<path d="M18027 4699 c7 -7 15 -10 18 -7 3 3 -2 9 -12 12 -14 6 -15 5 -6 -5z"/>
<path d="M14141 4683 c0 -5 4 -17 9 -28 8 -17 8 -16 7 8 -1 15 -5 27 -9 27 -4
0 -8 -3 -7 -7z"/>
<path d="M13875 4670 c-3 -5 1 -10 10 -10 9 0 13 5 10 10 -3 6 -8 10 -10 10
-2 0 -7 -4 -10 -10z"/>
<path d="M6817 4655 c-17 -12 -12 -22 62 -131 134 -199 309 -382 454 -476 45
-29 50 -30 65 -15 9 9 14 18 11 20 -2 2 -33 24 -69 47 -132 89 -311 282 -445
480 -32 47 -58 86 -59 87 0 1 -9 -5 -19 -12z"/>
<path d="M14328 4628 c5 -5 16 -8 23 -6 8 3 3 7 -10 11 -17 4 -21 3 -13 -5z"/>
<path d="M17655 4630 c-19 -8 -19 -9 3 -9 12 -1 22 4 22 9 0 6 -1 10 -2 9 -2
0 -12 -4 -23 -9z"/>
<path d="M14307 4613 c-9 -15 17 -23 34 -11 11 8 11 9 -3 5 -9 -3 -18 -1 -21
6 -2 8 -5 8 -10 0z"/>
<path d="M13975 4600 c3 -5 8 -10 11 -10 2 0 4 5 4 10 0 6 -5 10 -11 10 -5 0
-7 -4 -4 -10z"/>
<path d="M14085 4581 c6 -11 3 -13 -13 -9 -12 4 -24 3 -27 -2 -7 -11 30 -19
46 -9 12 7 12 10 0 21 -11 11 -13 11 -6 -1z"/>
<path d="M17618 4583 c7 -3 16 -2 19 1 4 3 -2 6 -13 5 -11 0 -14 -3 -6 -6z"/>
<path d="M14110 4576 c0 -2 7 -6 15 -10 8 -3 15 -1 15 4 0 6 -7 10 -15 10 -8
0 -15 -2 -15 -4z"/>
<path d="M14588 4553 c7 -3 16 -2 19 1 4 3 -2 6 -13 5 -11 0 -14 -3 -6 -6z"/>
<path d="M14643 4545 c8 -9 18 -10 30 -4 23 13 22 14 -12 15 -23 1 -26 -2 -18
-11z"/>
<path d="M14706 4551 c8 -9 44 -11 44 -3 0 4 -11 8 -25 8 -13 0 -22 -2 -19 -5z"/>
<path d="M14805 4551 c-8 -15 3 -31 21 -31 9 0 14 7 12 17 -4 20 -24 28 -33
14z"/>
<path d="M17350 4550 c-13 -9 -13 -10 0 -11 8 0 4 -4 -10 -9 -20 -6 -16 -7 20
-7 36 0 41 1 22 8 -13 5 -20 13 -17 19 8 12 4 12 -15 0z"/>
<path d="M13970 4543 c0 -1 8 -7 18 -12 13 -7 19 -6 19 2 0 7 -9 13 -19 13
-10 0 -18 -1 -18 -3z"/>
<path d="M17308 4543 c7 -3 16 -2 19 1 4 3 -2 6 -13 5 -11 0 -14 -3 -6 -6z"/>
<path d="M17380 4546 c0 -2 9 -6 20 -9 11 -3 18 -1 14 4 -5 9 -34 13 -34 5z"/>
<path d="M14023 4525 c0 -7 6 -11 14 -8 7 3 13 6 13 8 0 2 -6 5 -13 8 -8 3
-14 -1 -14 -8z"/>
<path d="M14065 4520 c-3 -5 -1 -10 4 -10 6 0 11 5 11 10 0 6 -2 10 -4 10 -3
0 -8 -4 -11 -10z"/>
<path d="M14871 4504 c0 -11 3 -14 6 -6 3 7 2 16 -1 19 -3 4 -6 -2 -5 -13z"/>
<path d="M17298 4503 c7 -3 16 -2 19 1 4 3 -2 6 -13 5 -11 0 -14 -3 -6 -6z"/>
<path d="M14067 4479 c7 -7 15 -10 18 -7 3 3 -2 9 -12 12 -14 6 -15 5 -6 -5z"/>
<path d="M14100 4474 c0 -6 9 -19 20 -29 10 -9 18 -27 17 -38 -2 -17 21 -31
143 -87 80 -37 148 -65 153 -63 4 2 7 -1 7 -8 0 -7 3 -9 7 -6 3 4 12 2 20 -4
7 -6 13 -8 13 -4 0 4 11 0 25 -9 14 -9 30 -14 35 -11 13 8 101 -16 94 -26 -3
-5 3 -6 12 -2 12 5 15 3 9 -6 -6 -10 -3 -11 13 -2 25 13 35 14 28 2 -9 -13 36
-22 51 -9 7 6 13 6 13 2 0 -5 45 -10 100 -12 l100 -2 0 25 c0 26 -12 31 -72
26 -16 -1 -28 3 -28 9 0 6 6 8 13 4 6 -4 8 -3 4 1 -10 12 -38 15 -31 4 3 -5
-2 -9 -11 -9 -9 0 -13 5 -9 11 5 8 1 8 -14 0 -27 -14 -35 -14 -26 2 5 8 2 8
-9 -2 -9 -7 -17 -10 -17 -5 0 5 -19 10 -41 11 -49 1 -91 21 -82 37 4 6 -1 5
-11 -3 -15 -13 -19 -13 -27 0 -7 12 -9 12 -9 -1 0 -11 -3 -11 -12 -2 -10 10
-10 15 2 22 9 6 10 10 3 10 -7 0 -16 -6 -20 -13 -5 -9 -16 -11 -33 -6 -24 7
-24 7 -2 8 12 1 22 5 22 9 0 11 -44 10 -52 -2 -4 -6 -14 -4 -26 7 -11 10 -26
15 -35 11 -19 -7 -77 51 -77 76 0 13 -2 13 -9 1 -7 -10 -4 -20 10 -32 31 -27
22 -31 -20 -10 -21 11 -41 17 -45 14 -3 -4 -6 -1 -6 6 0 7 -4 10 -9 6 -5 -3
-16 2 -25 10 -8 9 -18 16 -20 16 -3 0 -21 6 -41 14 -22 10 -33 20 -29 29 7 18
-32 41 -42 25 -4 -8 -9 -7 -15 2 -5 8 -9 9 -9 3z m53 -18 c9 5 9 4 0 -6 -13
-15 -37 -4 -26 13 5 8 8 8 11 -1 2 -7 9 -9 15 -6z"/>
<path d="M14175 4468 c4 -10 15 -18 24 -18 12 0 13 -2 3 -8 -9 -6 -5 -12 15
-20 23 -10 25 -10 12 0 -9 7 -14 23 -13 36 2 12 -1 22 -7 22 -5 0 -7 -4 -4
-10 9 -14 -9 -12 -24 3 -10 10 -11 9 -6 -5z"/>
<path d="M17038 4443 c7 -3 16 -2 19 1 4 3 -2 6 -13 5 -11 0 -14 -3 -6 -6z"/>
<path d="M14725 4430 c-3 -5 -1 -10 4 -10 6 0 11 5 11 10 0 6 -2 10 -4 10 -3
0 -8 -4 -11 -10z"/>
<path d="M14778 4433 c-16 -2 -28 -8 -28 -13 0 -4 14 -6 31 -3 23 3 29 1 24
-8 -5 -8 -4 -10 3 -5 13 8 17 37 5 35 -5 -1 -20 -4 -35 -6z"/>
<path d="M14590 4421 c0 -4 11 -6 25 -3 14 2 25 6 25 8 0 2 -11 4 -25 4 -14 0
-25 -4 -25 -9z"/>
<path d="M14384 4389 c-3 -6 -2 -15 3 -20 5 -5 9 -1 9 11 0 23 -2 24 -12 9z"/>
<path d="M16639 4387 c5 -5 24 -7 42 -5 33 3 33 4 -8 8 -23 3 -39 2 -34 -3z"/>
<path d="M16118 4293 c6 -2 18 -2 25 0 6 3 1 5 -13 5 -14 0 -19 -2 -12 -5z"/>
<path d="M16150 4275 c-10 -13 -9 -15 11 -14 13 0 18 3 11 6 -6 2 -10 9 -6 14
9 15 -2 10 -16 -6z"/>
<path d="M15818 4233 c12 -2 30 -2 40 0 9 3 -1 5 -23 4 -22 0 -30 -2 -17 -4z"/>
<path d="M15650 4210 c19 -13 30 -13 30 0 0 6 -10 10 -22 10 -19 0 -20 -2 -8
-10z"/>
<path d="M15710 4210 c0 -5 5 -10 11 -10 5 0 7 5 4 10 -3 6 -8 10 -11 10 -2 0
-4 -4 -4 -10z"/>
<path d="M15155 4150 l-50 -7 42 -1 c23 -1 50 -5 60 -8 14 -5 15 -4 4 4 -11 8
-8 11 15 15 23 3 24 4 4 4 -14 0 -47 -3 -75 -7z"/>
<path d="M15335 4150 c-27 -7 -28 -8 -5 -8 14 0 34 3 45 8 25 11 2 11 -40 0z"/>
<path d="M15448 4153 c7 -3 16 -2 19 1 4 3 -2 6 -13 5 -11 0 -14 -3 -6 -6z"/>
<path d="M14888 4143 c6 -2 18 -2 25 0 6 3 1 5 -13 5 -14 0 -19 -2 -12 -5z"/>
</g>
</svg>
